<svg xmlns="http://www.w3.org/2000/svg" width="24" height="22.688" viewBox="0 0 24 22.688">
    <metadata><?xpacket begin="﻿" id="W5M0MpCehiHzreSzNTczkc9d"?>
        <x:xmpmeta xmlns:x="adobe:ns:meta/" x:xmptk="Adobe XMP Core 5.6-c142 79.160924, 2017/07/13-01:06:39        ">
            <rdf:RDF xmlns:rdf="http://www.w3.org/1999/02/22-rdf-syntax-ns#">
                <rdf:Description rdf:about=""/>
            </rdf:RDF>
        </x:xmpmeta>


        <?xpacket end="w"?>
    </metadata>
    <defs>
        <style>
            .cls-1 {
            fill: #ebaa2c;
            fill-rule: evenodd;
            }
        </style>
    </defs>
    <path class="cls-1"
          d="M354.431,920.667a0.493,0.493,0,0,0-.492.442h0l-2.968,21.606a0.516,0.516,0,0,0-.018.124,0.182,0.182,0,0,0,.008.083,0.5,0.5,0,0,0,.921.158,0.042,0.042,0,0,0,0-.007l3.01-5.286,0,0a0.236,0.236,0,0,0,.035-0.118,0.248,0.248,0,0,0-.249-0.247h-0.746a0.493,0.493,0,1,1,0-.985h18.516a0.5,0.5,0,0,0,.5-0.493,0.479,0.479,0,0,0-.022-0.137v0l-1.968-7.258,3.93-7.177h0a0.491,0.491,0,0,0-.45-0.7H354.431Z"
          transform="translate(-350.938 -920.656)"/>
</svg>
