<svg xmlns="http://www.w3.org/2000/svg" width="134" height="19" viewBox="0 0 134 19">
    <metadata><?xpacket begin="﻿" id="W5M0MpCehiHzreSzNTczkc9d"?>
        <x:xmpmeta xmlns:x="adobe:ns:meta/" x:xmptk="Adobe XMP Core 5.6-c142 79.160924, 2017/07/13-01:06:39        ">
            <rdf:RDF xmlns:rdf="http://www.w3.org/1999/02/22-rdf-syntax-ns#">
                <rdf:Description rdf:about=""/>
            </rdf:RDF>
        </x:xmpmeta>


        <?xpacket end="w"?>
    </metadata>
    <defs>
        <style>
            .cls-1 {
            fill: #9ea0a3;
            fill-rule: evenodd;
            }
        </style>
    </defs>
    <path id="Shape_839_copy" data-name="Shape 839 copy" class="cls-1"
          d="M425.217,4161.83l5.16,17.34a0.567,0.567,0,0,1-.627.84h-3.165a0.943,0.943,0,0,1-1-.84l-0.741-2.69h-4.732l-0.742,2.69a0.942,0.942,0,0,1-1,.84H415.5a0.567,0.567,0,0,1-.627-0.84l5.16-17.34a0.992,0.992,0,0,1,1.055-.84h3.079A0.992,0.992,0,0,1,425.217,4161.83Zm-1.8,9.51a55.132,55.132,0,0,1-.884-5.85c-0.057.39-.513,4.22-0.97,5.85l-0.427,1.51h2.68Zm13.564,7.83a0.691,0.691,0,0,1-.8.84h-3.079a0.708,0.708,0,0,1-.826-0.84v-17.34a0.708,0.708,0,0,1,.826-0.84h3.079a0.691,0.691,0,0,1,.8.84v17.34Zm14.047-6.88,2.793,6.88c0.2,0.5-.171.84-0.8,0.84h-3.079a0.962,0.962,0,0,1-.827-0.84l-2.509-6.18h-2.138v6.18a0.69,0.69,0,0,1-.8.84H440.6a0.709,0.709,0,0,1-.827-0.84v-17.34a0.709,0.709,0,0,1,.827-0.84h6.158c5.36,0,7.242,2.38,7.242,4.78v2.43A4.341,4.341,0,0,1,451.032,4172.29Zm-6.558-7.53v4.45h2.281c1.4,0,2.594-.53,2.594-1.82v-0.81c0-1.28-1.2-1.82-2.594-1.82h-2.281Zm-115.118-3.77a1.039,1.039,0,0,1,1.058.84l5.16,17.33a0.566,0.566,0,0,1-.627.84h-3.164a0.98,0.98,0,0,1-1-.84l-0.739-2.68H325.31l-0.742,2.68a0.98,0.98,0,0,1-1,.84h-2.876a0.564,0.564,0,0,1-.627-0.84l5.156-17.33a1.04,1.04,0,0,1,1.054-.84h3.079Zm-0.338,11.85-0.4-1.51c-0.245-.95-0.539-3.25-0.88-6.19-0.477,3.31-.8,5.61-0.969,6.19l-0.428,1.51h2.68Zm13.176-11.01v14.39h5.227a0.732,0.732,0,0,1,.856.79v2.18a0.737,0.737,0,0,1-.856.81h-9.4a0.693,0.693,0,0,1-.713-0.84v-17.33a0.738,0.738,0,0,1,.828-0.84H341.4A0.724,0.724,0,0,1,342.194,4161.83Zm12.963,0v14.39h5.225a0.732,0.732,0,0,1,.858.79v2.18a0.738,0.738,0,0,1-.858.81h-9.4a0.692,0.692,0,0,1-.714-0.84v-17.33a0.738,0.738,0,0,1,.829-0.84h3.257A0.726,0.726,0,0,1,355.157,4161.83Zm19.153,0,1.9,7.8a24.114,24.114,0,0,1,.476,3.19,31.394,31.394,0,0,1,.5-3.17l1.956-7.82a0.967,0.967,0,0,1,.979-0.84h2.629c0.559,0,.762.28,0.615,0.84l-4.363,17.33a0.969,0.969,0,0,1-1.033.84h-2.935a0.94,0.94,0,0,1-.925-0.84l-2.013-8.05a17.845,17.845,0,0,1-.389-2.83,22.168,22.168,0,0,1-.423,2.86l-2.012,8.02a0.971,0.971,0,0,1-1.036.84h-2.934a0.934,0.934,0,0,1-.919-0.84l-4.364-17.33a0.569,0.569,0,0,1,.614-0.84h3.074a0.968,0.968,0,0,1,.981.84l1.9,7.82c0.057,0.26.119,0.58,0.183,0.94s0.12,0.7.168,1.01,0.08,0.99.094,1.05c0.118-.75.285-2.08,0.508-3l1.983-7.82a0.973,0.973,0,0,1,.981-0.84h2.824A0.969,0.969,0,0,1,374.31,4161.83Zm15.537,0v17.33a0.724,0.724,0,0,1-.8.84h-3.08a0.736,0.736,0,0,1-.825-0.84v-17.33a0.736,0.736,0,0,1,.825-0.84h3.08A0.724,0.724,0,0,1,389.847,4161.83Zm17.376,0v17.33a0.722,0.722,0,0,1-.793.84h-2.8a0.827,0.827,0,0,1-.773-0.39l-4.558-7.44a16.339,16.339,0,0,1-1.229-2.52v9.51a0.723,0.723,0,0,1-.8.84h-2.793a0.738,0.738,0,0,1-.828-0.84v-17.33a0.738,0.738,0,0,1,.828-0.84h2.793a0.732,0.732,0,0,1,.714.33l4.818,7.92a17.987,17.987,0,0,1,1,2.09v-9.5a0.737,0.737,0,0,1,.828-0.84h2.8A0.722,0.722,0,0,1,407.223,4161.83Z"
          transform="translate(-320 -4161)"/>
</svg>
