<svg xmlns="http://www.w3.org/2000/svg" width="134" height="19" viewBox="0 0 134 19">
    <metadata><?xpacket begin="﻿" id="W5M0MpCehiHzreSzNTczkc9d"?>
        <x:xmpmeta xmlns:x="adobe:ns:meta/" x:xmptk="Adobe XMP Core 5.6-c142 79.160924, 2017/07/13-01:06:39        ">
            <rdf:RDF xmlns:rdf="http://www.w3.org/1999/02/22-rdf-syntax-ns#">
                <rdf:Description rdf:about=""/>
            </rdf:RDF>
        </x:xmpmeta>


        <?xpacket end="w"?>
    </metadata>
    <defs>
        <style>
            .cls-1 {
            fill: #ebaa2c;
            fill-rule: evenodd;
            }
        </style>
    </defs>
    <path id="Logo" class="cls-1"
          d="M185.217,31.827l5.16,17.341a0.567,0.567,0,0,1-.627.839h-3.165a0.941,0.941,0,0,1-1-.839l-0.741-2.685h-4.732l-0.742,2.685a0.94,0.94,0,0,1-1,.839H175.5a0.567,0.567,0,0,1-.627-0.839l5.16-17.34a0.992,0.992,0,0,1,1.055-.839h3.079A0.992,0.992,0,0,1,185.217,31.827Zm-1.8,9.51a54.891,54.891,0,0,1-.884-5.846,59.079,59.079,0,0,1-.97,5.846l-0.427,1.51h2.68Zm13.564,7.831a0.691,0.691,0,0,1-.8.839h-3.079a0.708,0.708,0,0,1-.826-0.839V31.827a0.708,0.708,0,0,1,.826-0.839h3.079a0.691,0.691,0,0,1,.8.839V49.168Zm14.047-6.88,2.793,6.88c0.2,0.5-.171.839-0.8,0.839h-3.079a0.959,0.959,0,0,1-.827-0.839l-2.509-6.181h-2.138v6.181a0.691,0.691,0,0,1-.8.839H200.6a0.709,0.709,0,0,1-.827-0.839V31.827a0.709,0.709,0,0,1,.827-0.839h6.158c5.36,0,7.242,2.377,7.242,4.783V38.2A4.334,4.334,0,0,1,211.032,42.288Zm-6.558-7.523v4.447h2.281c1.4,0,2.594-.532,2.594-1.818V36.582c0-1.287-1.2-1.818-2.594-1.818h-2.281ZM89.357,30.988a1.039,1.039,0,0,1,1.058.838l5.159,17.334a0.565,0.565,0,0,1-.627.839H91.783a0.98,0.98,0,0,1-1-.839l-0.739-2.685H85.31l-0.742,2.685a0.98,0.98,0,0,1-1,.839H80.694a0.564,0.564,0,0,1-.627-0.839l5.156-17.334a1.041,1.041,0,0,1,1.054-.838h3.079ZM89.018,42.841l-0.4-1.51c-0.245-.951-0.539-3.252-0.88-6.194-0.477,3.316-.8,5.618-0.969,6.194l-0.428,1.51h2.68Zm13.176-11.014v14.4h5.227a0.728,0.728,0,0,1,.856.785v2.179a0.738,0.738,0,0,1-.856.812h-9.4a0.693,0.693,0,0,1-.714-0.839V31.827a0.738,0.738,0,0,1,.828-0.838H101.4A0.723,0.723,0,0,1,102.194,31.827Zm12.963,0v14.4h5.225a0.728,0.728,0,0,1,.858.785v2.179a0.738,0.738,0,0,1-.858.812h-9.4a0.692,0.692,0,0,1-.714-0.839V31.827a0.737,0.737,0,0,1,.829-0.838h3.257A0.725,0.725,0,0,1,115.157,31.827Zm19.153,0,1.9,7.8a24.67,24.67,0,0,1,.476,3.2,30.607,30.607,0,0,1,.5-3.169l1.956-7.827a0.967,0.967,0,0,1,.979-0.838h2.629a0.57,0.57,0,0,1,.616.838l-4.364,17.334a0.97,0.97,0,0,1-1.033.839h-2.935a0.941,0.941,0,0,1-.925-0.839L132.1,41.109a17.812,17.812,0,0,1-.389-2.825,22.04,22.04,0,0,1-.423,2.852l-2.012,8.025a0.971,0.971,0,0,1-1.036.839h-2.934a0.935,0.935,0,0,1-.919-0.839l-4.364-17.334a0.568,0.568,0,0,1,.614-0.838h3.074a0.967,0.967,0,0,1,.981.838l1.9,7.827c0.057,0.261.119,0.574,0.183,0.938s0.12,0.7.168,1.007,0.08,0.992.094,1.048c0.118-.744.285-2.08,0.508-2.993l1.983-7.827a0.973,0.973,0,0,1,.981-0.838h2.824A0.968,0.968,0,0,1,134.31,31.827Zm15.538,0V49.161a0.725,0.725,0,0,1-.8.839h-3.08a0.736,0.736,0,0,1-.825-0.839V31.827a0.735,0.735,0,0,1,.825-0.838h3.08A0.724,0.724,0,0,1,149.848,31.827Zm17.375,0V49.161a0.722,0.722,0,0,1-.793.839h-2.8a0.823,0.823,0,0,1-.773-0.394L158.3,42.169a16.055,16.055,0,0,1-1.229-2.516v9.507a0.723,0.723,0,0,1-.8.839h-2.793a0.738,0.738,0,0,1-.828-0.839V31.827a0.737,0.737,0,0,1,.828-0.838h2.793a0.726,0.726,0,0,1,.714.335l4.818,7.912a18.717,18.717,0,0,1,1,2.1v-9.5a0.736,0.736,0,0,1,.828-0.838h2.8A0.721,0.721,0,0,1,167.223,31.827Z"
          transform="translate(-80 -31)"/>
</svg>
