<svg xmlns="http://www.w3.org/2000/svg" width="23" height="18" viewBox="0 0 23 18">
    <metadata><?xpacket begin="﻿" id="W5M0MpCehiHzreSzNTczkc9d"?>
        <x:xmpmeta xmlns:x="adobe:ns:meta/" x:xmptk="Adobe XMP Core 5.6-c142 79.160924, 2017/07/13-01:06:39        ">
            <rdf:RDF xmlns:rdf="http://www.w3.org/1999/02/22-rdf-syntax-ns#">
                <rdf:Description rdf:about=""/>
            </rdf:RDF>
        </x:xmpmeta>


        <?xpacket end="w"?>
    </metadata>
    <defs>
        <style>
            .cls-1 {
            fill: #292a4d;
            fill-rule: evenodd;
            }
        </style>
    </defs>
    <path class="cls-1"
          d="M453.114,1141.76l-1.636-2.4h-1.171a0.3,0.3,0,0,0-.307.29l1.116,3.16v0.38h0L450,1146.35a0.3,0.3,0,0,0,.307.29h1.171l1.663-2.44c1.358,0.06,8.278.29,8.278,0.29l-3.328,7.13a0.394,0.394,0,0,0,.407.38h2.054l5.387-7.37,5.033,0.12a1.791,1.791,0,1,0,0-3.55l-5.062.12-5.358-7.32H458.5a0.394,0.394,0,0,0-.407.38l3.313,7.08"
          transform="translate(-450 -1134)"/>
</svg>
