<?xml version="1.0" encoding="utf-8"?>
<!-- Generator: Adobe Illustrator 22.0.1, SVG Export Plug-In . SVG Version: 6.00 Build 0)  -->
<svg version="1.1" id="Layer_1" xmlns="http://www.w3.org/2000/svg" xmlns:xlink="http://www.w3.org/1999/xlink" x="0px" y="0px"
	 viewBox="0 0 28.9 22.9" style="enable-background:new 0 0 28.9 22.9;" xml:space="preserve">
<style type="text/css">
	.st0{fill:#2A2A4E;}
</style>
<path class="st0" d="M3.9,9.9L1.9,6.8H0.4C0.2,6.8,0,7,0,7.2c0,0,0,0,0,0l1.4,4v0.5l0,0l-1.4,4c0,0.2,0.2,0.4,0.4,0.4c0,0,0,0,0,0
	h1.5L4,13c1.7,0.1,10.4,0.4,10.4,0.4l-4.2,9.1c0,0.3,0.2,0.5,0.5,0.5h2.6l6.8-9.4l6.3,0.2c1.2,0.2,2.4-0.7,2.5-2
	c0.2-1.2-0.7-2.4-2-2.5c-0.2,0-0.4,0-0.5,0L20,9.3L13.3,0h-2.6c-0.3,0-0.5,0.2-0.5,0.5l4.2,9"/>
</svg>
