<svg width="22" height="22" viewBox="0 0 22 22" xmlns="http://www.w3.org/2000/svg" xmlns:xlink="http://www.w3.org/1999/xlink">
    <defs>
        <path id="0thr3t93sa" d="M0 0h22v22H0z"/>
    </defs>
    <g fill="none" fill-rule="evenodd">
        <g>
            <mask id="lh06m4hl6b" fill="#fff">
                <use xlink:href="#0thr3t93sa"/>
            </mask>
            <path d="M16.494 22H5.506A5.506 5.506 0 0 1 0 16.494V5.506A5.506 5.506 0 0 1 5.506 0h10.988A5.506 5.506 0 0 1 22 5.506v10.988A5.506 5.506 0 0 1 16.494 22" fill="#222" mask="url(#lh06m4hl6b)"/>
        </g>
        <path d="M14.391 12.367c.895 0 1.475.94 1.076 1.741-.75 1.51-2.448 2.564-4.421 2.564-1.973 0-3.67-1.053-4.421-2.564A1.204 1.204 0 0 1 7.7 12.367h6.69z" fill="#FFF"/>
        <g fill="#FFF" fill-rule="nonzero">
            <path d="M13.578 8.617c0-1.108.902-2.01 2.011-2.01s2.011.901 2.011 2.01a.578.578 0 1 1-1.156 0 .856.856 0 0 0-1.71 0 .578.578 0 1 1-1.156 0zM4.4 8.611c0-1.109.902-2.011 2.011-2.011 1.11 0 2.011.902 2.011 2.011a.578.578 0 1 1-1.155 0 .856.856 0 0 0-1.711 0 .578.578 0 1 1-1.156 0z"/>
        </g>
    </g>
</svg>
