<?xml version="1.0" encoding="UTF-8"?>
<svg width="232px" height="35px" viewBox="0 0 232 35" version="1.1" xmlns="http://www.w3.org/2000/svg" xmlns:xlink="http://www.w3.org/1999/xlink">
    <!-- Generator: sketchtool 49.3 (51167) - http://www.bohemiancoding.com/sketch -->
    <title>7FB5DE7C-DF14-4DAF-B07F-86743C272CF7</title>
    <desc>Created with sketchtool.</desc>
    <defs>
        <polygon id="path-1" points="0.051509313 0.353499915 24.3556611 0.353499915 24.3556611 33.6484188 0.051509313 33.6484188"></polygon>
        <polygon id="path-3" points="0 0.353312977 26.8614234 0.353312977 26.8614234 33.6349592 0 33.6349592"></polygon>
    </defs>
    <g id="01_main" stroke="none" stroke-width="1" fill="none" fill-rule="evenodd">
        <g id="01_main_00" transform="translate(-468.000000, -70.000000)">
            <rect id="Rectangle-3" fill="#FFFFFF" x="0" y="0" width="750" height="1624"></rect>
            <g id="02_logo" transform="translate(468.000000, 70.236641)">
                <path d="M178.456165,19.1948765 C177.680885,16.1758502 177.002437,9.29770992 176.953713,8.85247597 C176.857496,9.54520206 176.080983,16.3238417 175.306319,19.1948765 L174.579147,21.86691 L179.134612,21.86691 L178.456165,19.1948765 Z M181.509178,2.36918952 L190.281502,33.0500281 C190.572618,33.9902463 190.232777,34.5343511 189.215723,34.5343511 L183.836252,34.5343511 C182.817965,34.5343511 182.382525,33.9902463 182.139517,33.0500281 L180.879456,28.2998163 L172.834304,28.2998163 L171.574242,33.0500281 C171.332468,33.9902463 170.895794,34.5343511 169.877507,34.5343511 L164.983434,34.5343511 C163.965146,34.5343511 163.625923,33.9902463 163.917038,33.0500281 L172.688746,2.36918952 C172.979245,1.37985071 173.464026,0.885496183 174.482314,0.885496183 L179.716227,0.885496183 C180.733898,0.885496183 181.218679,1.37985071 181.509178,2.36918952 Z" id="Fill-1" fill="#292A4D"></path>
                <path d="M201.89313,33.0500281 C201.89313,34.0897469 201.554461,34.5343511 200.539685,34.5343511 L195.323822,34.5343511 C194.30966,34.5343511 193.923664,34.0897469 193.923664,33.0500281 L193.923664,2.36918952 C193.923664,1.33073013 194.30966,0.885496183 195.323822,0.885496183 L200.539685,0.885496183 C201.554461,0.885496183 201.89313,1.33073013 201.89313,2.36918952 L201.89313,33.0500281 Z" id="Fill-3" fill="#292A4D"></path>
                <g id="Group-7" transform="translate(207.206107, 0.000000)">
                    <mask id="mask-2" fill="white">
                        <use xlink:href="#path-1"></use>
                    </mask>
                    <g id="Clip-6"></g>
                    <path d="M8.08782992,6.96363053 L8.08782992,14.7489786 L11.9841902,14.7489786 C14.3706024,14.7489786 16.4160986,13.81865 16.4160986,11.5666693 L16.4160986,10.1459398 C16.4160986,7.89333593 14.3706024,6.96363053 11.9841902,6.96363053 L8.08782992,6.96363053 Z M19.2903307,20.1346647 L24.0631551,32.1797086 C24.404691,33.0614332 23.771207,33.6484188 22.699491,33.6484188 L17.4394666,33.6484188 C16.5134147,33.6484188 16.3194024,32.8651482 16.0262147,32.1797086 L11.7399704,21.3591092 L8.08782992,21.3591092 L8.08782992,32.1797086 C8.08782992,33.2084912 7.74629405,33.6484188 6.72354595,33.6484188 L1.46352153,33.6484188 C0.440153588,33.6484188 0.051509313,33.2084912 0.051509313,32.1797086 L0.051509313,1.82158699 C0.051509313,0.794050664 0.440153588,0.353499915 1.46352153,0.353499915 L11.9841902,0.353499915 C21.1411948,0.353499915 24.3557231,4.51474165 24.3557231,8.72583353 L24.3557231,12.9861524 C24.3557231,15.777138 22.9424711,18.5681236 19.2903307,20.1346647 Z" id="Fill-5" fill="#292A4D" mask="url(#mask-2)"></path>
                </g>
                <g id="Group-10">
                    <mask id="mask-4" fill="white">
                        <use xlink:href="#path-3"></use>
                    </mask>
                    <g id="Clip-9"></g>
                    <path d="M15.4915605,21.1032533 L14.7990622,18.4599488 C14.3779484,16.7949536 13.8726119,12.767061 13.2861719,7.61504744 C12.4657798,13.4213443 11.9149006,17.4511062 11.6191851,18.4599488 L10.8836396,21.1032533 L15.4915605,21.1032533 Z M16.0736334,0.353126039 C16.993845,0.353126039 17.5965057,0.841657563 17.8922212,1.82058999 L26.7636854,32.1668722 C27.0544099,33.1433121 26.6969311,33.6349592 25.6862579,33.6349592 L20.2460914,33.6349592 C19.358945,33.6349592 18.7862302,33.1433121 18.5273232,32.1668722 L17.2564953,27.4660025 L9.1155855,27.4660025 L7.83976662,32.1668722 C7.57462089,33.1433121 7.01313581,33.6349592 6.12411777,33.6349592 L1.17805808,33.6349592 C0.159898473,33.6349592 -0.194460999,33.1433121 0.100006731,32.1668722 L8.96648001,1.82058999 C9.26469098,0.841657563 9.86984712,0.353126039 10.7788291,0.353126039 L16.0736334,0.353126039 Z" id="Fill-8" fill="#292A4D" mask="url(#mask-4)"></path>
                </g>
                <path d="M38.3870856,2.36851288 L38.3870856,27.850696 L47.2498689,27.850696 C48.2169194,27.850696 48.7022901,28.316265 48.7022901,29.239843 L48.7022901,33.0966944 C48.7022901,34.0555522 48.2169194,34.5343511 47.2498689,34.5343511 L31.3162984,34.5343511 C30.5141141,34.5343511 30.1068702,34.0372823 30.1068702,33.0494445 L30.1068702,2.36851288 C30.1068702,1.37941508 30.5805527,0.885496183 31.5106928,0.885496183 L37.036783,0.885496183 C37.9367797,0.885496183 38.3870856,1.37941508 38.3870856,2.36851288" id="Fill-11" fill="#292A4D"></path>
                <path d="M60.5270852,2.36851288 L60.5270852,27.850696 L69.3850053,27.850696 C70.3562334,27.850696 70.8396947,28.316265 70.8396947,29.239843 L70.8396947,33.0966944 C70.8396947,34.0555522 70.3562334,34.5343511 69.3850053,34.5343511 L53.453543,34.5343511 C52.6477743,34.5343511 52.2442748,34.0372823 52.2442748,33.0494445 L52.2442748,2.36851288 C52.2442748,1.37941508 52.714204,0.885496183 53.6491418,0.885496183 L59.1714255,0.885496183 C60.0731483,0.885496183 60.5270852,1.37941508 60.5270852,2.36851288" id="Fill-13" fill="#292A4D"></path>
                <path d="M93.9800348,2.36851288 L97.2812453,16.1743021 C97.6368378,17.6579488 97.914881,19.7539541 98.1084393,21.8316895 C98.4035055,19.4540748 98.6878535,17.3757094 98.9835501,16.222182 L102.382485,2.36851288 C102.640984,1.37941508 103.209049,0.885496183 104.082268,0.885496183 L108.652011,0.885496183 C109.622956,0.885496183 109.976657,1.37941508 109.721311,2.36851288 L102.139749,33.0494445 C101.917189,34.0372823 101.314447,34.5343511 100.343503,34.5343511 L95.2428928,34.5343511 C94.4289389,34.5343511 93.89555,34.0372823 93.6364214,33.0494445 L90.1378697,18.7982462 C89.8503693,17.6421988 89.6271782,15.9764825 89.4613611,13.7992074 C89.2696942,15.8775728 89.0225448,17.561559 88.7274786,18.8454961 L85.2308183,33.0494445 C85.0088882,34.0372823 84.4061462,34.5343511 83.4307885,34.5343511 L78.3320702,34.5343511 C77.5225297,34.5343511 76.9878799,34.0372823 76.7344256,33.0494445 L69.1516032,2.36851288 C68.8893221,1.37941508 69.2505891,0.885496183 70.2183809,0.885496183 L75.5598353,0.885496183 C76.4368375,0.885496183 77.0080554,1.37941508 77.2652925,2.36851288 L80.566503,16.222182 C80.6661194,16.683341 80.773932,17.2383697 80.8855275,17.8822283 C80.9958621,18.5254568 81.0942175,19.1189155 81.1761803,19.6644943 C81.2575127,20.2069231 81.3155171,21.4203004 81.3413669,21.5192102 C81.545013,20.2025131 81.8350354,17.8387584 82.2234131,16.222182 L85.6696347,2.36851288 C85.9325462,1.37941508 86.5043945,0.885496183 87.373831,0.885496183 L92.2815128,0.885496183 C93.1503188,0.885496183 93.7190147,1.37941508 93.9800348,2.36851288" id="Fill-15" fill="#292A4D"></path>
                <path d="M120.427481,2.36851288 L120.427481,33.0494445 C120.427481,34.0372823 119.975614,34.5343511 119.074338,34.5343511 L113.855423,34.5343511 C112.924023,34.5343511 112.458015,34.0372823 112.458015,33.0494445 L112.458015,2.36851288 C112.458015,1.37941508 112.924023,0.885496183 113.855423,0.885496183 L119.074338,0.885496183 C119.975614,0.885496183 120.427481,1.37941508 120.427481,2.36851288" id="Fill-17" fill="#292A4D"></path>
                <path d="M150.534351,2.36851288 L150.534351,33.0494445 C150.534351,34.0372823 150.086001,34.5343511 149.183125,34.5343511 L144.424189,34.5343511 C143.811567,34.5343511 143.368775,34.3025117 143.110017,33.8369427 L135.351581,20.6756421 C134.702523,19.6210244 134.005912,18.1348577 133.25928,16.222182 L133.25928,33.0494445 C133.25928,34.0372823 132.811547,34.5343511 131.904965,34.5343511 L127.150353,34.5343511 C126.212276,34.5343511 125.740458,34.0372823 125.740458,33.0494445 L125.740458,2.36851288 C125.740458,1.37941508 126.212276,0.885496183 127.150353,0.885496183 L131.904965,0.885496183 C132.51697,0.885496183 132.920238,1.08079575 133.120328,1.47832486 L141.319703,15.4819336 C141.769289,16.2732119 142.334976,17.5080091 143.014912,19.1913654 L143.014912,2.36851288 C143.014912,1.37941508 143.484877,0.885496183 144.424189,0.885496183 L149.183125,0.885496183 C150.086001,0.885496183 150.534351,1.37941508 150.534351,2.36851288" id="Fill-19" fill="#292A4D"></path>
            </g>
        </g>
    </g>
</svg>