<?xml version="1.0" encoding="utf-8"?>
<!-- Generator: Adobe Illustrator 22.1.0, SVG Export Plug-In . SVG Version: 6.00 Build 0)  -->
<svg version="1.1" id="Capa_1" xmlns="http://www.w3.org/2000/svg" xmlns:xlink="http://www.w3.org/1999/xlink" x="0px" y="0px"
	 viewBox="0 0 650.2 574.3" style="enable-background:new 0 0 650.2 574.3;" xml:space="preserve">
<style type="text/css">
	.st0{display:none;opacity:0.53;}
</style>
<g>
	<g>
		<path d="M650.2,287.1c0-27.7-22.7-49.9-50.4-49.4l-147.4,3c-2.5,0.1-4.8-1.2-6.2-3.3L299.4,3.3c-1.3-2.1-3.6-3.3-6-3.3h-61.9
			c-4.9,0-8.4,4.9-6.7,9.5l84.5,234.1c0,0.1,0,0.2-0.1,0.2l-200,3.1c-2.3,0-4.5-1.1-5.9-3l-36.6-51c-1.3-1.9-3.5-3-5.8-3H7.2
			c-5.2,0-8.7,5.5-6.4,10.2L41.2,284c0.9,1.9,0.9,4.2,0,6.2L0.7,374.1c-2.3,4.7,1.2,10.2,6.4,10.2h53.7c2.3,0,4.4-1.1,5.8-3l36.6-51
			c1.4-1.9,3.6-3,5.9-3l199.5,3.1c0.3,0,0.6,0.4,0.5,0.7l-84.3,233.6c-1.7,4.6,1.8,9.5,6.7,9.5h61.9c2.4,0,4.7-1.3,6-3.3
			l146.9-234.1c1.3-2.1,3.7-3.4,6.2-3.3l147.4,3C627.5,337.1,650.2,314.8,650.2,287.1z"/>
	</g>
</g>
<g id="_x32_WIZL7.tif" class="st0">
	
		<image style="display:inline;overflow:visible;enable-background:new    ;" width="469" height="471" id="Layer_0_1_" xlink:href="73D0EABD.png"  transform="matrix(1.714 0 0 1.714 -73.2147 -109.5024)">
	</image>
</g>
</svg>
