<?xml version="1.0" encoding="utf-8"?>
<!-- Generator: Adobe Illustrator 22.1.0, SVG Export Plug-In . SVG Version: 6.00 Build 0)  -->
<svg version="1.1" id="Layer_1" xmlns="http://www.w3.org/2000/svg"  x="0px" y="0px"
	 viewBox="0 0 56.7 41.4" style="enable-background:new 0 0 56.7 41.4;" xml:space="preserve">
<style type="text/css">
	.st0{fill:#EBAA2C;}
</style>
<path class="st0" d="M56.5,0.1C56.4,0,56.2,0,56,0L45.8,2.7L36.4,0c-0.1,0-0.2,0-0.3,0L25.9,2.7L16.5,0c-0.1,0-0.2,0-0.3,0L5.9,2.7
	c-0.2,0-0.4,0.2-0.4,0.4L1.8,28.8c0,0,0,0,0,0.1L0,40.8c0,0.3,0.1,0.5,0.3,0.6c0.1,0,0.1,0,0.2,0c0.2,0,0.4-0.1,0.5-0.3l5.4-9.4
	c0.1-0.2,0.1-0.4,0-0.5C6.3,31.1,6.1,31,5.9,31H5c-0.6,0-1.1-0.5-1.1-1.1c0-0.4,0.2-0.7,0.5-0.9l8.3-2.2l9.4,2.6c0.1,0,0.2,0,0.3,0
	l10.2-2.6l9.4,2.6c0.1,0,0.2,0,0.3,0l10.4-2.7c0.2-0.1,0.4-0.2,0.4-0.4l3.7-25.7C56.7,0.4,56.6,0.3,56.5,0.1z"/>
</svg>
