<?xml version="1.0" encoding="utf-8"?>
<!-- Generator: Adobe Illustrator 21.1.0, SVG Export Plug-In . SVG Version: 6.00 Build 0)  -->
<svg version="1.1" id="Layer_1" xmlns="http://www.w3.org/2000/svg" xmlns:xlink="http://www.w3.org/1999/xlink" x="0px" y="0px"
	 viewBox="0 0 24.3 24.3" style="enable-background:new 0 0 24.3 24.3;" xml:space="preserve">
<style type="text/css">
	.st0{fill:#A4A4A4;}
	.st1{fill:#FFFFFF;}
</style>
<g>
	<path class="st0" d="M23.6,2.6H0.7C0.3,2.6,0,2.9,0,3.3v20.3c0,0.4,0.3,0.7,0.7,0.7h22.9c0.4,0,0.7-0.3,0.7-0.7V3.3
		C24.3,2.9,24,2.6,23.6,2.6z"/>
	<path class="st1" d="M22.9,23.2H1.5c-0.2,0-0.4-0.2-0.4-0.4V8.8c0-0.2,0.2-0.4,0.4-0.4h21.4c0.2,0,0.4,0.2,0.4,0.4v14.1
		C23.2,23.1,23.1,23.2,22.9,23.2z"/>
	<g>
		<path class="st0" d="M6.8,4.2H5.9c-0.4,0-0.7-0.3-0.7-0.7V0.7C5.2,0.3,5.5,0,5.9,0h0.9c0.4,0,0.7,0.3,0.7,0.7v2.8
			C7.6,3.9,7.2,4.2,6.8,4.2z"/>
		<path class="st0" d="M18.4,4.2h-0.9c-0.4,0-0.7-0.3-0.7-0.7V0.7c0-0.4,0.3-0.7,0.7-0.7h0.9c0.4,0,0.7,0.3,0.7,0.7v2.8
			C19.1,3.9,18.8,4.2,18.4,4.2z"/>
	</g>
</g>
</svg>
