<?xml version="1.0" encoding="utf-8"?>
<!-- Generator: Adobe Illustrator 21.1.0, SVG Export Plug-In . SVG Version: 6.00 Build 0)  -->
<svg version="1.1" id="Layer_1" xmlns="http://www.w3.org/2000/svg" xmlns:xlink="http://www.w3.org/1999/xlink" x="0px" y="0px"
	 viewBox="0 0 14.8 14.8" style="enable-background:new 0 0 14.8 14.8;" xml:space="preserve">
<style type="text/css">
	.st0{fill:#27294B;}
	.st1{fill:#FFFFFF;}
</style>
<g>
	<circle class="st0" cx="7.4" cy="7.4" r="7.4"/>
	<g>
		<path class="st1" d="M6.2,8c0-0.5,0.3-0.7,0.6-0.9l1-0.5C8,6.5,8.2,6.4,8.2,6.1V5.9c0-0.5-0.3-0.6-0.8-0.6c-0.5,0-0.8,0.2-0.8,0.6
			v0.4c0,0.2-0.1,0.3-0.3,0.3h-1C5.1,6.6,5,6.5,5,6.3V5.7C5,4.8,5.6,4,7.4,4c1.8,0,2.4,0.8,2.4,1.7V6c0,1-0.5,1.4-1,1.6L8.2,7.9
			C7.9,8.1,7.9,8.1,7.9,8.4v0.2c0,0.2-0.1,0.3-0.3,0.3H6.5c-0.2,0-0.3-0.1-0.3-0.3V8z M7.9,10.5c0,0.2-0.1,0.3-0.3,0.3H6.5
			c-0.2,0-0.3-0.1-0.3-0.3V9.7c0-0.2,0.1-0.3,0.3-0.3h1.1c0.2,0,0.3,0.1,0.3,0.3V10.5z"/>
	</g>
</g>
</svg>
