<?xml version="1.0" encoding="utf-8"?>
<!-- Generator: Adobe Illustrator 22.1.0, SVG Export Plug-In . SVG Version: 6.00 Build 0)  -->
<svg version="1.1" id="Layer_1" xmlns="http://www.w3.org/2000/svg" xmlns:xlink="http://www.w3.org/1999/xlink" x="0px" y="0px"
	 viewBox="0 0 211.2 95.7" style="enable-background:new 0 0 211.2 95.7;" xml:space="preserve">
<style type="text/css">
	.st0{fill:#FFFFFF;}
</style>
<g>
	<g>
		<g>
			<path class="st0" d="M23.2,0c1.3,0,2.1,0.7,2.6,2.1l12.4,42.6c0.4,1.4-0.1,2.1-1.5,2.1h-7.6c-1.2,0-2-0.7-2.4-2.1l-1.8-6.6H13.5
				l-1.8,6.6c-0.4,1.4-1.2,2.1-2.4,2.1H2.4c-1.4,0-1.9-0.7-1.5-2.1L13.3,2.1C13.7,0.7,14.5,0,15.8,0H23.2z M22.4,29.1l-1-3.7
				c-0.6-2.3-1.3-8-2.1-15.2C18.2,18.4,17.4,24,17,25.4l-1,3.7H22.4z"/>
		</g>
		<g>
			<path class="st0" d="M54.2,2.1v35.4h12.6c1.4,0,2.1,0.6,2.1,1.9v5.4c0,1.3-0.7,2-2.1,2H44.2c-1.1,0-1.7-0.7-1.7-2.1V2.1
				c0-1.4,0.7-2.1,2-2.1h7.9C53.6,0,54.2,0.7,54.2,2.1z"/>
		</g>
		<g>
			<path class="st0" d="M85.5,2.1v35.4h12.6c1.4,0,2.1,0.6,2.1,1.9v5.4c0,1.3-0.7,2-2.1,2H75.4c-1.1,0-1.7-0.7-1.7-2.1V2.1
				c0-1.4,0.7-2.1,2-2.1h7.9C84.8,0,85.5,0.7,85.5,2.1z"/>
		</g>
		<g>
			<path class="st0" d="M131.7,2.1l4.6,19.2c0.5,2.1,0.9,5,1.1,7.9c0.4-3.3,0.8-6.2,1.2-7.8l4.7-19.2c0.4-1.4,1.1-2.1,2.4-2.1h6.3
				c1.3,0,1.8,0.7,1.5,2.1L143,44.7c-0.3,1.4-1.1,2.1-2.5,2.1h-7.1c-1.1,0-1.9-0.7-2.2-2.1l-4.9-19.8c-0.4-1.6-0.7-3.9-0.9-6.9
				c-0.3,2.9-0.6,5.2-1,7l-4.9,19.7c-0.3,1.4-1.1,2.1-2.5,2.1h-7c-1.1,0-1.9-0.7-2.2-2.1L97.2,2.1C96.9,0.7,97.4,0,98.7,0h7.4
				c1.2,0,2,0.7,2.4,2.1l4.6,19.2c0.1,0.6,0.3,1.4,0.4,2.3c0.2,0.9,0.3,1.7,0.4,2.5s0.2,2.4,0.2,2.6c0.3-1.8,0.7-5.1,1.2-7.4
				l4.8-19.2c0.4-1.4,1.2-2.1,2.4-2.1h6.8C130.5,0,131.3,0.7,131.7,2.1z"/>
		</g>
		<g>
			<path class="st0" d="M169.2,2.1v42.6c0,1.4-0.6,2.1-1.9,2.1h-7.4c-1.3,0-2-0.7-2-2.1V2.1c0-1.4,0.7-2.1,2-2.1h7.4
				C168.5,0,169.2,0.7,169.2,2.1z"/>
		</g>
		<g>
			<path class="st0" d="M211.1,2.1v42.6c0,1.4-0.6,2.1-1.9,2.1h-6.7c-0.9,0-1.5-0.3-1.9-1l-11-18.3c-0.9-1.5-1.9-3.5-3-6.2v23.4
				c0,1.4-0.6,2.1-1.9,2.1H178c-1.3,0-2-0.7-2-2.1V2.1c0-1.4,0.7-2.1,2-2.1h6.7c0.9,0,1.4,0.3,1.7,0.8L198,20.3
				c0.6,1.1,1.4,2.8,2.4,5.2V2.1c0-1.4,0.7-2.1,2-2.1h6.7C210.5,0,211.1,0.7,211.1,2.1z"/>
		</g>
	</g>
	<g>
		<path class="st0" d="M17.5,69.2c0-2.4-1.7-3.3-4.1-3.3s-4.2,0.9-4.2,3.3v0.5c0,1.4,1.1,2.1,1.7,2.3l8.9,3c3.9,1.3,6.6,4.1,6.6,8
			v3.7c0,4.5-3.2,9-13.1,9S0,91.2,0,86.7v-3.5c0-1.1,0.4-1.6,1.5-1.6H7c1.1,0,1.5,0.5,1.5,1.6v2.4c0,2.4,2.1,3.3,4.6,3.3
			c2.6,0,4.7-0.9,4.7-3.3v-1.1c0-1.9-2.5-2.8-4.5-3.5l-7.6-2.8c-2.7-1-4.9-4-4.9-7V68c0-4.5,2.7-9,12.5-9S26,63.5,26,68v2
			c0,1.1-0.4,1.6-1.5,1.6H19c-1.1,0-1.5-0.5-1.5-1.6V69.2z"/>
		<path class="st0" d="M56.8,86.7c0,4.5-3.1,9-13,9s-13-4.5-13-9V68c0-4.5,3.1-9,13-9s13,4.5,13,9v2.4c0,1.1-0.4,1.6-1.5,1.6h-5.4
			c-1.1,0-1.5-0.5-1.5-1.6v-0.9c0-2.4-1.8-3.4-4.4-3.4c-2.6,0-4.4,1-4.4,3.4v15.6c0,2.4,1.8,3.4,4.4,3.4c2.6,0,4.4-1,4.4-3.4v-1.7
			c0-1.1,0.4-1.6,1.5-1.6h5.4c1.1,0,1.5,0.5,1.5,1.6V86.7z"/>
		<path class="st0" d="M78.3,61l9.5,32.7c0.3,1-0.1,1.6-1.2,1.6h-5.9c-1.1,0-1.6-0.6-1.8-1.6l-1.4-5.1h-8.8l-1.4,5.1
			c-0.3,1-0.7,1.6-1.8,1.6h-5.3c-1.1,0-1.5-0.6-1.2-1.6L68.8,61c0.3-1.1,0.8-1.6,2-1.6h5.7C77.5,59.4,78,59.9,78.3,61z M75,78.9
			c-0.8-3.2-1.6-10.5-1.6-11c-0.1,0.7-0.9,8-1.8,11l-0.8,2.8h5L75,78.9z"/>
		<path class="st0" d="M118.6,93.7c0,1.1-0.4,1.6-1.5,1.6h-5.2c-0.8,0-1.1-0.2-1.4-0.7l-8.4-14c-0.9-1.4-1.7-3.3-2.3-4.7v17.9
			c0,1.1-0.4,1.6-1.5,1.6h-5.2c-1.1,0-1.5-0.5-1.5-1.6V61c0-1.1,0.4-1.6,1.5-1.6h5.2c0.7,0,1.1,0.2,1.3,0.6l8.9,14.9
			c0.6,1.1,1.3,2.7,1.8,4V61c0-1.1,0.4-1.6,1.5-1.6h5.2c1.1,0,1.5,0.5,1.5,1.6L118.6,93.7L118.6,93.7z"/>
		<path class="st0" d="M151.8,93.7c0,1.1-0.4,1.6-1.5,1.6h-5.2c-0.8,0-1.1-0.2-1.4-0.7l-8.4-14c-0.9-1.4-1.7-3.3-2.3-4.7v17.9
			c0,1.1-0.4,1.6-1.5,1.6h-5.2c-1.1,0-1.5-0.5-1.5-1.6V61c0-1.1,0.4-1.6,1.5-1.6h5.2c0.7,0,1.1,0.2,1.3,0.6l8.9,14.9
			c0.6,1.1,1.3,2.7,1.8,4V61c0-1.1,0.4-1.6,1.5-1.6h5.2c1.1,0,1.5,0.5,1.5,1.6L151.8,93.7L151.8,93.7z"/>
		<path class="st0" d="M159.7,95.3c-1.1,0-1.5-0.5-1.5-1.6V61c0-1.1,0.4-1.6,1.5-1.6h18c1.1,0,1.6,0.4,1.6,1.5V65
			c0,1.1-0.5,1.5-1.6,1.5h-10.9v6.9h10c1.1,0,1.6,0.4,1.6,1.5v3.8c0,1.1-0.5,1.5-1.6,1.5h-10v7.9h11.4c1.1,0,1.6,0.4,1.6,1.5v4.1
			c0,1.1-0.5,1.5-1.6,1.5L159.7,95.3L159.7,95.3z"/>
		<path class="st0" d="M205.7,80.7l5.2,13c0.4,0.9-0.3,1.6-1.5,1.6h-5.7c-1,0-1.2-0.8-1.5-1.6L197.5,82h-4v11.7
			c0,1.1-0.4,1.6-1.5,1.6h-5.7c-1.1,0-1.5-0.5-1.5-1.6V61c0-1.1,0.4-1.6,1.5-1.6h11.4c9.9,0,13.4,4.5,13.4,9V73
			C211.2,76,209.6,79,205.7,80.7z M193.6,66.5v8.4h4.2c2.6,0,4.8-1,4.8-3.4V70c0-2.4-2.2-3.4-4.8-3.4L193.6,66.5L193.6,66.5z"/>
	</g>
</g>
</svg>
