<svg xmlns="http://www.w3.org/2000/svg" width="28.94" height="22.938" viewBox="0 0 28.94 22.938">
    <metadata><?xpacket begin="﻿" id="W5M0MpCehiHzreSzNTczkc9d"?>
        <x:xmpmeta xmlns:x="adobe:ns:meta/" x:xmptk="Adobe XMP Core 5.6-c142 79.160924, 2017/07/13-01:06:39        ">
            <rdf:RDF xmlns:rdf="http://www.w3.org/1999/02/22-rdf-syntax-ns#">
                <rdf:Description rdf:about=""/>
            </rdf:RDF>
        </x:xmpmeta>


        <?xpacket end="w"?>
    </metadata>
    <defs>
        <style>
            .cls-1 {
            fill: #bababa;
            fill-rule: evenodd;
            }
        </style>
    </defs>
    <path class="cls-1"
          d="M1385.03,571.889l-2.06-3.058h-1.47a0.374,0.374,0,0,0-.39.363l1.4,4.03v0.485h0l-1.4,4.03a0.374,0.374,0,0,0,.39.363h1.47l2.09-3.112c1.71,0.08,10.41.374,10.41,0.374l-4.18,9.088a0.5,0.5,0,0,0,.51.481h2.58l6.78-9.391,6.33,0.155a2.279,2.279,0,1,0,0-4.525l-6.37.156L1394.38,562h-2.58a0.5,0.5,0,0,0-.51.481l4.16,9.024"
          transform="translate(-1381.09 -562)"/>
</svg>
