<svg xmlns="http://www.w3.org/2000/svg" width="659" height="127" viewBox="0 0 659 127">
    <metadata><?xpacket begin="﻿" id="W5M0MpCehiHzreSzNTczkc9d"?>
        <x:xmpmeta xmlns:x="adobe:ns:meta/" x:xmptk="Adobe XMP Core 5.6-c142 79.160924, 2017/07/13-01:06:39        ">
            <rdf:RDF xmlns:rdf="http://www.w3.org/1999/02/22-rdf-syntax-ns#">
                <rdf:Description rdf:about=""/>
            </rdf:RDF>
        </x:xmpmeta>


        <?xpacket end="w"?>
    </metadata>
    <defs>
        <style>
            .cls-1 {
            fill: none;
            stroke: #1a1a1a;
            stroke-width: 2px;
            fill-rule: evenodd;
            }
        </style>
    </defs>
    <path id="flag" class="cls-1"
          d="M652.836,161.007a1.978,1.978,0,0,0-1.968,1.783,0.018,0.018,0,0,0-.008,0L632.079,283.5a2.013,2.013,0,0,0-.073.5,0.719,0.719,0,0,0,.034.34,1.974,1.974,0,0,0,3.675.637,0.144,0.144,0,0,0,.024-0.03l14.484-30.019-0.006-.01a0.957,0.957,0,0,0,.142-0.481,1,1,0,0,0-.994-1h-2.978a1.991,1.991,0,0,1,0-3.982H1274.61a1.985,1.985,0,0,0,1.98-1.988,2.005,2.005,0,0,0-.08-0.551v-0.012l-5.63-41.7,17.93-41.374v0A1.964,1.964,0,0,0,1289,163a1.989,1.989,0,0,0-1.99-1.99H652.836Z"
          transform="translate(-631 -160)"/>
</svg>
