<?xml version="1.0" encoding="utf-8"?>
<!-- Generator: Adobe Illustrator 22.0.1, SVG Export Plug-In . SVG Version: 6.00 Build 0)  -->
<svg version="1.1" id="레이어_3" xmlns="http://www.w3.org/2000/svg" xmlns:xlink="http://www.w3.org/1999/xlink" x="0px"
	 y="0px" viewBox="0 0 369.4 53.3" style="enable-background:new 0 0 369.4 53.3;" xml:space="preserve">
<style type="text/css">
	.st0{fill:#FFFFFF;}
</style>
<g>
	<path class="st0" d="M290.1,2.4l14.2,48.7c0.5,1.5-0.1,2.4-1.7,2.4h-8.7c-1.7,0-2.4-0.9-2.8-2.4l-2-7.5h-13l-2,7.5
		c-0.4,1.5-1.1,2.4-2.8,2.4h-7.9c-1.7,0-2.2-0.9-1.7-2.4l14.2-48.7c0.5-1.6,1.3-2.4,2.9-2.4h8.5C288.8,0,289.6,0.8,290.1,2.4z
		 M285.2,29.1c-1.3-4.8-2.4-15.7-2.4-16.4c-0.2,1.1-1.4,11.9-2.7,16.4l-1.2,4.2h7.4L285.2,29.1z"/>
	<path class="st0" d="M322.5,51.1c0,1.7-0.6,2.4-2.2,2.4h-8.5c-1.7,0-2.3-0.7-2.3-2.4V2.4c0-1.6,0.6-2.4,2.3-2.4h8.5
		c1.7,0,2.2,0.7,2.2,2.4V51.1z"/>
	<path class="st0" d="M361.3,31.8l7.7,19.3c0.6,1.4-0.5,2.4-2.2,2.4h-8.5c-1.5,0-1.8-1.3-2.3-2.4l-6.9-17.4h-5.9v17.4
		c0,1.7-0.6,2.4-2.2,2.4h-8.5c-1.7,0-2.3-0.7-2.3-2.4V2.4c0-1.6,0.6-2.4,2.3-2.4h17c14.8,0,20,6.7,20,13.4v6.8
		C369.4,24.8,367.1,29.3,361.3,31.8z M343.2,10.6v12.5h6.3c3.9,0,7.2-1.5,7.2-5.1v-2.3c0-3.6-3.3-5.1-7.2-5.1H343.2z"/>
	<g>
		<g>
			<path class="st0" d="M25.9,0c1.5,0,2.4,0.8,2.9,2.4L43,51.1c0.5,1.6-0.1,2.4-1.7,2.4h-8.7c-1.4,0-2.3-0.8-2.8-2.4l-2-7.5h-13
				l-2,7.5c-0.4,1.6-1.3,2.4-2.7,2.4H2c-1.6,0-2.2-0.8-1.7-2.4L14.5,2.4C15,0.8,16,0,17.4,0H25.9z M25,33.3l-1.1-4.2
				c-0.7-2.7-1.5-9.1-2.4-17.4c-1.3,9.3-2.2,15.8-2.7,17.4l-1.2,4.2H25z"/>
		</g>
		<g>
			<path class="st0" d="M61.3,2.4v40.4h14.4c1.6,0,2.4,0.7,2.4,2.2v6.1c0,1.5-0.8,2.3-2.4,2.3H49.8c-1.3,0-2-0.8-2-2.4V2.4
				c0-1.6,0.8-2.4,2.3-2.4h9C60.5,0,61.3,0.8,61.3,2.4z"/>
		</g>
		<g>
			<path class="st0" d="M97,2.4v40.4h14.4c1.6,0,2.4,0.7,2.4,2.2v6.1c0,1.5-0.8,2.3-2.4,2.3H85.5c-1.3,0-2-0.8-2-2.4V2.4
				c0-1.6,0.8-2.4,2.3-2.4h9C96.3,0,97,0.8,97,2.4z"/>
		</g>
		<g>
			<path class="st0" d="M149.8,2.4l5.2,21.9c0.6,2.4,1,5.7,1.3,9c0.5-3.8,0.9-7.1,1.4-8.9l5.4-22c0.4-1.6,1.3-2.4,2.7-2.4h7.2
				c1.5,0,2.1,0.8,1.7,2.4l-12,48.7c-0.4,1.6-1.3,2.4-2.8,2.4h-8.1c-1.3,0-2.1-0.8-2.5-2.4l-5.5-22.6c-0.5-1.8-0.8-4.5-1.1-7.9
				c-0.3,3.3-0.7,6-1.2,8l-5.5,22.5c-0.4,1.6-1.3,2.4-2.9,2.4H125c-1.3,0-2.1-0.8-2.5-2.4l-12-48.7C110,0.8,110.6,0,112.1,0h8.5
				c1.4,0,2.3,0.8,2.7,2.4l5.2,22c0.2,0.7,0.3,1.6,0.5,2.6c0.2,1,0.3,2,0.5,2.8c0.1,0.9,0.2,2.8,0.3,2.9c0.3-2.1,0.8-5.8,1.4-8.4
				l5.5-22c0.4-1.6,1.3-2.4,2.7-2.4h7.8C148.5,0,149.4,0.8,149.8,2.4z"/>
		</g>
		<g>
			<path class="st0" d="M192.6,2.4v48.7c0,1.6-0.7,2.4-2.2,2.4h-8.5c-1.5,0-2.3-0.8-2.3-2.4V2.4c0-1.6,0.8-2.4,2.3-2.4h8.5
				C191.9,0,192.6,0.8,192.6,2.4z"/>
		</g>
		<g>
			<path class="st0" d="M240.5,2.4v48.7c0,1.6-0.7,2.4-2.2,2.4h-7.7c-1,0-1.7-0.4-2.1-1.1l-12.6-20.9c-1.1-1.7-2.2-4-3.4-7.1v26.7
				c0,1.6-0.7,2.4-2.2,2.4h-7.7c-1.5,0-2.3-0.8-2.3-2.4V2.4c0-1.6,0.8-2.4,2.3-2.4h7.7c1,0,1.6,0.3,2,0.9l13.3,22.2
				c0.7,1.3,1.6,3.2,2.7,5.9V2.4c0-1.6,0.8-2.4,2.3-2.4h7.7C239.8,0,240.5,0.8,240.5,2.4z"/>
		</g>
	</g>
</g>
</svg>
