<svg xmlns="http://www.w3.org/2000/svg" width="23" height="18" viewBox="0 0 23 18">
    <metadata><?xpacket begin="﻿" id="W5M0MpCehiHzreSzNTczkc9d"?>
        <x:xmpmeta xmlns:x="adobe:ns:meta/" x:xmptk="Adobe XMP Core 5.6-c142 79.160924, 2017/07/13-01:06:39        ">
            <rdf:RDF xmlns:rdf="http://www.w3.org/1999/02/22-rdf-syntax-ns#">
                <rdf:Description rdf:about=""/>
            </rdf:RDF>
        </x:xmpmeta>


        <?xpacket end="w"?>
    </metadata>
    <defs>
        <style>
            .cls-1 {
            fill: #ebaa2c;
            fill-rule: evenodd;
            }
        </style>
    </defs>
    <path id="Shape_1_copy_4" data-name="Shape 1 copy 4" class="cls-1"
          d="M1417.11,39.762l-1.63-2.4h-1.17a0.3,0.3,0,0,0-.31.285l1.12,3.163v0.38h0L1414,44.354a0.3,0.3,0,0,0,.31.285h1.17l1.66-2.443c1.36,0.063,8.28.294,8.28,0.294l-3.33,7.133a0.392,0.392,0,0,0,.41.377h2.05l5.39-7.371,5.03,0.122a1.792,1.792,0,1,0,0-3.551l-5.06.123L1424.55,32h-2.05a0.392,0.392,0,0,0-.41.377l3.31,7.083"
          transform="translate(-1414 -32)"/>
</svg>
