<svg xmlns="http://www.w3.org/2000/svg" width="25" height="20" viewBox="0 0 25 20">
    <metadata><?xpacket begin="﻿" id="W5M0MpCehiHzreSzNTczkc9d"?>
        <x:xmpmeta xmlns:x="adobe:ns:meta/" x:xmptk="Adobe XMP Core 5.6-c142 79.160924, 2017/07/13-01:06:39        ">
            <rdf:RDF xmlns:rdf="http://www.w3.org/1999/02/22-rdf-syntax-ns#">
                <rdf:Description rdf:about=""/>
            </rdf:RDF>
        </x:xmpmeta>


        <?xpacket end="w"?>
    </metadata>
    <defs>
        <style>
            .cls-1 {
            fill-rule: evenodd;
            }
        </style>
    </defs>
    <path id="Shape_1_copy" data-name="Shape 1 copy" class="cls-1"
          d="M3.385,8.624L1.606,5.957H0.334A0.326,0.326,0,0,0,0,6.274L1.213,9.789v0.422h0L0,13.726a0.326,0.326,0,0,0,.334.316H1.607l1.807-2.714c1.476,0.07,9,.326,9,0.326L8.794,19.581a0.431,0.431,0,0,0,.443.42H11.47l5.855-8.191L22.8,11.945A2.1,2.1,0,0,0,25,9.972,2.1,2.1,0,0,0,22.8,8l-5.5.136L11.47,0H9.237A0.431,0.431,0,0,0,8.794.42l3.6,7.87"/>
</svg>
