<?xml version="1.0" encoding="utf-8"?>
<!-- Generator: Adobe Illustrator 22.1.0, SVG Export Plug-In . SVG Version: 6.00 Build 0)  -->
<svg version="1.1" id="Layer_1" xmlns="http://www.w3.org/2000/svg" xmlns:xlink="http://www.w3.org/1999/xlink" x="0px" y="0px"
	 viewBox="0 0 504.3 46.8" style="enable-background:new 0 0 504.3 46.8;" xml:space="preserve">
<style type="text/css">
	.st0{fill:#FEBD3E;}
	.st1{fill:#9F9FA0;}
	.st2{fill:none;stroke:#231815;stroke-width:0.25;stroke-miterlimit:10;stroke-dasharray:1,1;}
	.st3{fill:none;}
	.st4{fill:none;stroke:#231815;stroke-width:0.25;stroke-miterlimit:10;}
	.st5{fill:none;stroke:#231815;stroke-width:0.25;stroke-miterlimit:10;stroke-dasharray:0.9993,0.9993;}
</style>
<text transform="matrix(0.9998 4.659255e-03 -4.660000e-03 1 83.7194 -455.4363)" style="fill:#5A5858; font-family:'Geogrotesque-SemiBold'; font-size:9.3336px;">LOGO</text>
<text transform="matrix(0.9998 0 0 1 -17.6105 -455.4362)"><tspan x="0" y="0" style="fill:#5A5858; font-family:'Geogrotesque-SemiBold'; font-size:8.6884px;">Allwin Scanner</tspan><tspan x="0" y="10.4" style="fill:#5A5858; font-family:'Geogrotesque-SemiBold'; font-size:8.6884px;">brand identity</tspan><tspan x="0" y="20.9" style="fill:#5A5858; font-family:'Geogrotesque-SemiBold'; font-size:8.6884px;">design drafts</tspan></text>
<g>
	<g>
		<path class="st0" d="M226.8-395.9h0.5c0.1,0,0.2,0,0.2,0.1l1.5,4.9c0,0.1,0,0.1-0.1,0.1h-0.5c-0.1,0-0.1,0-0.2-0.1l-0.4-1.2h-1.6
			l-0.4,1.2c0,0.1-0.1,0.1-0.2,0.1h-0.4c-0.1,0-0.1,0-0.1-0.1l1.5-4.9C226.6-395.8,226.7-395.9,226.8-395.9z M227.6-392.6l-0.4-1.4
			c0-0.1-0.1-0.3-0.1-0.6c0-0.3-0.1-0.4-0.1-0.5c0,0,0,0.1,0,0.2c0,0.1-0.1,0.3-0.1,0.5c0,0.2-0.1,0.3-0.1,0.4l-0.4,1.4H227.6z"/>
	</g>
	<g>
		<path class="st0" d="M246.2-376.2h0.5c0.1,0,0.2,0,0.2,0.1l1.5,4.9c0,0.1,0,0.1-0.1,0.1h-0.5c-0.1,0-0.1,0-0.2-0.1l-0.4-1.2h-1.6
			l-0.4,1.2c0,0.1-0.1,0.1-0.2,0.1h-0.4c-0.1,0-0.1,0-0.1-0.1l1.5-4.9C246-376.2,246.1-376.2,246.2-376.2z M247-372.9l-0.4-1.4
			c0-0.1-0.1-0.3-0.1-0.6c0-0.3-0.1-0.4-0.1-0.5c0,0,0,0.1,0,0.2c0,0.1-0.1,0.3-0.1,0.5c0,0.2-0.1,0.3-0.1,0.4l-0.4,1.4H247z"/>
	</g>
	<g>
		<path class="st0" d="M246.2-257.4h0.5c0.1,0,0.2,0,0.2,0.1l1.5,4.9c0,0.1,0,0.1-0.1,0.1h-0.5c-0.1,0-0.1,0-0.2-0.1l-0.4-1.2h-1.6
			l-0.4,1.2c0,0.1-0.1,0.1-0.2,0.1h-0.4c-0.1,0-0.1,0-0.1-0.1l1.5-4.9C246-257.3,246.1-257.4,246.2-257.4z M247-254.1l-0.4-1.4
			c0-0.1-0.1-0.3-0.1-0.6c0-0.3-0.1-0.4-0.1-0.5c0,0,0,0.1,0,0.2s-0.1,0.3-0.1,0.5c0,0.2-0.1,0.3-0.1,0.4l-0.4,1.4H247z"/>
	</g>
	<g>
		<path class="st1" d="M109.7-394.8v3c0,0.3-0.1,0.6-0.4,0.8c-0.2,0.2-0.7,0.3-1.2,0.3c-1.1,0-1.6-0.4-1.6-1.1v-0.2
			c0-0.1,0-0.1,0.1-0.1h0.4c0.1,0,0.1,0,0.1,0.1v0.1c0,0.2,0.1,0.4,0.2,0.5c0.1,0.1,0.4,0.2,0.7,0.2c0.3,0,0.5-0.1,0.7-0.2
			c0.1-0.1,0.2-0.3,0.2-0.5v-1.2c-0.2,0.2-0.5,0.3-1,0.3c-0.5,0-0.9-0.1-1.2-0.3c-0.2-0.2-0.4-0.5-0.4-0.9v-0.8
			c0-0.8,0.5-1.2,1.6-1.2C109.1-396,109.7-395.6,109.7-394.8z M108.9-394v-0.7c0-0.2-0.1-0.4-0.2-0.5c-0.1-0.1-0.4-0.2-0.7-0.2
			c-0.3,0-0.6,0.1-0.7,0.2c-0.1,0.1-0.2,0.3-0.2,0.5v0.6c0,0.2,0.1,0.4,0.2,0.5c0.1,0.1,0.4,0.2,0.7,0.2c0.3,0,0.5-0.1,0.7-0.2
			C108.9-393.6,108.9-393.8,108.9-394z"/>
		<path class="st1" d="M112-395.9h0.5c0.1,0,0.2,0,0.2,0.1l1.5,4.9c0,0.1,0,0.1-0.1,0.1h-0.5c-0.1,0-0.1,0-0.2-0.1L113-392h-1.6
			l-0.4,1.2c0,0.1-0.1,0.1-0.2,0.1h-0.4c-0.1,0-0.1,0-0.1-0.1l1.5-4.9C111.8-395.8,111.9-395.9,112-395.9z M112.8-392.6l-0.4-1.4
			c0-0.1-0.1-0.3-0.1-0.6c0-0.3-0.1-0.4-0.1-0.5c0,0,0,0.1,0,0.2c0,0.1-0.1,0.3-0.1,0.5c0,0.2-0.1,0.3-0.1,0.4l-0.4,1.4H112.8z"/>
	</g>
	<line class="st2" x1="4.9" y1="-385" x2="4.9" y2="-243.5"/>
	<line class="st2" x1="215.3" y1="-385" x2="215.3" y2="-243.5"/>
	<line class="st2" x1="-18.4" y1="-361.6" x2="238.7" y2="-361.6"/>
	<line class="st2" x1="-18.4" y1="-302.6" x2="238.7" y2="-302.6"/>
	<line class="st2" x1="-18.4" y1="-266.4" x2="238.7" y2="-266.4"/>
	<line class="st2" x1="-18.4" y1="-314.9" x2="238.7" y2="-314.9"/>
	<rect x="-18.4" y="-385" class="st2" width="257.1" height="141.9"/>
	<rect x="215.3" y="-385" class="st3" width="23.4" height="23.3"/>
	<rect x="215.3" y="-266.4" class="st3" width="23.4" height="23.3"/>
	<g>
		<path class="st0" d="M-7-395.9h0.5c0.1,0,0.2,0,0.2,0.1l1.5,4.9c0,0.1,0,0.1-0.1,0.1h-0.5c-0.1,0-0.1,0-0.2-0.1L-6-392h-1.6
			l-0.4,1.2c0,0.1-0.1,0.1-0.2,0.1h-0.4c-0.1,0-0.1,0-0.1-0.1l1.5-4.9C-7.1-395.8-7.1-395.9-7-395.9z M-6.1-392.6l-0.4-1.4
			c0-0.1-0.1-0.3-0.1-0.6c0-0.3-0.1-0.4-0.1-0.5c0,0,0,0.1,0,0.2c0,0.1-0.1,0.3-0.1,0.5c0,0.2-0.1,0.3-0.1,0.4l-0.4,1.4H-6.1z"/>
	</g>
	<g>
		<path class="st1" d="M245.3-282.3h2.3c0.1,0,0.1,0,0.1,0.1v0.4c0,0.1,0,0.1-0.1,0.1h-2.9c-0.1,0-0.1,0-0.1-0.1v-1.5
			c0-0.1,0-0.2,0.1-0.3c0-0.1,0.1-0.2,0.2-0.2c0.1-0.1,0.1-0.1,0.2-0.1s0.1-0.1,0.2-0.1l1.5-0.6c0.3-0.1,0.4-0.3,0.4-0.5v-0.6
			c0-0.2-0.1-0.4-0.2-0.5c-0.1-0.1-0.4-0.2-0.7-0.2c-0.3,0-0.6,0.1-0.7,0.2c-0.1,0.1-0.2,0.3-0.2,0.5v0.3c0,0.1,0,0.2-0.1,0.2h-0.4
			c-0.1,0-0.1-0.1-0.1-0.2v-0.4c0-0.8,0.5-1.2,1.6-1.2c1.1,0,1.7,0.4,1.7,1.2v0.7c0,0.5-0.2,0.9-0.7,1l-1.3,0.5
			c-0.1,0-0.2,0.1-0.2,0.1c-0.1,0-0.1,0.1-0.2,0.1c-0.1,0.1-0.1,0.1-0.1,0.2V-282.3z"/>
		<path class="st1" d="M250.1-286.9h0.5c0.1,0,0.2,0,0.2,0.1l1.5,4.9c0,0.1,0,0.1-0.1,0.1h-0.5c-0.1,0-0.1,0-0.2-0.1l-0.4-1.2h-1.6
			l-0.4,1.2c0,0.1-0.1,0.1-0.2,0.1h-0.4c-0.1,0-0.1,0-0.1-0.1l1.5-4.9C249.9-286.8,250-286.9,250.1-286.9z M250.9-283.6l-0.4-1.4
			c0-0.1-0.1-0.3-0.1-0.6c0-0.3-0.1-0.4-0.1-0.5c0,0,0,0.1,0,0.2c0,0.1-0.1,0.3-0.1,0.5c0,0.2-0.1,0.3-0.1,0.4l-0.4,1.4H250.9z"/>
	</g>
	<g>
		<path class="st1" d="M245.3-335.6h2.3c0.1,0,0.1,0,0.1,0.1v0.4c0,0.1,0,0.1-0.1,0.1h-2.9c-0.1,0-0.1,0-0.1-0.1v-1.5
			c0-0.1,0-0.2,0.1-0.3c0-0.1,0.1-0.1,0.2-0.2c0.1-0.1,0.1-0.1,0.2-0.1c0.1,0,0.1-0.1,0.2-0.1l1.5-0.6c0.3-0.1,0.4-0.3,0.4-0.5v-0.6
			c0-0.2-0.1-0.4-0.2-0.5c-0.1-0.1-0.4-0.2-0.7-0.2c-0.3,0-0.6,0.1-0.7,0.2c-0.1,0.1-0.2,0.3-0.2,0.5v0.3c0,0.1,0,0.2-0.1,0.2h-0.4
			c-0.1,0-0.1-0.1-0.1-0.2v-0.4c0-0.8,0.5-1.2,1.6-1.2c1.1,0,1.7,0.4,1.7,1.2v0.7c0,0.5-0.2,0.9-0.7,1l-1.3,0.5
			c-0.1,0-0.2,0.1-0.2,0.1c-0.1,0-0.1,0.1-0.2,0.1c-0.1,0.1-0.1,0.1-0.1,0.2V-335.6z"/>
		<path class="st1" d="M249.5-335.7v0.6c0,0.1,0,0.1-0.1,0.1h-0.5c-0.1,0-0.1,0-0.1-0.1v-0.6c0-0.1,0-0.1,0.1-0.1h0.5
			C249.4-335.9,249.5-335.8,249.5-335.7z"/>
		<path class="st1" d="M250.8-340.2h2.7c0.1,0,0.2,0,0.2,0.1v0.3c0,0.1-0.1,0.1-0.2,0.1h-2v1.3h0.7c0.6,0,1,0.1,1.2,0.3
			c0.3,0.2,0.4,0.5,0.4,0.8v1c0,0.8-0.5,1.2-1.6,1.2c-1.1,0-1.6-0.4-1.6-1.2v-0.2c0-0.1,0-0.2,0.1-0.2h0.4c0.1,0,0.1,0.1,0.1,0.2
			v0.1c0,0.2,0.1,0.4,0.2,0.5c0.1,0.1,0.4,0.2,0.7,0.2c0.3,0,0.6-0.1,0.7-0.2c0.1-0.1,0.2-0.3,0.2-0.5v-0.8c0-0.4-0.3-0.6-0.9-0.6
			h-1.3c-0.1,0-0.1-0.1-0.1-0.2v-2.3C250.7-340.1,250.7-340.2,250.8-340.2z"/>
		<path class="st1" d="M256.1-340.2h0.5c0.1,0,0.2,0,0.2,0.1l1.5,4.9c0,0.1,0,0.1-0.1,0.1h-0.5c-0.1,0-0.1,0-0.2-0.1l-0.4-1.2h-1.6
			l-0.4,1.2c0,0.1-0.1,0.1-0.2,0.1h-0.4c-0.1,0-0.1,0-0.1-0.1l1.5-4.9C255.9-340.1,256-340.2,256.1-340.2z M256.9-336.9l-0.4-1.4
			c0-0.1-0.1-0.3-0.1-0.6c0-0.3-0.1-0.4-0.1-0.5c0,0,0,0.1,0,0.2c0,0.1-0.1,0.3-0.1,0.5c0,0.2-0.1,0.3-0.1,0.4l-0.4,1.4H256.9z"/>
	</g>
</g>
<g>
	<g>
		<g>
			<path class="st2" d="M422.3-284.2c0,16.2,0,24.4-8.1,32.5c-8.1,8.1-16.2,8.1-32.5,8.1h-48.7c-16.3,0-24.4,0-32.5-8.1
				c-8.1-8.1-8.1-16.2-8.1-32.5V-333c0-16.2,0-24.4,8.1-32.5c8.1-8.1,16.2-8.1,32.5-8.1h48.7c16.3,0,24.4,0,32.5,8.1
				c8.1,8.1,8.1,16.2,8.1,32.5V-284.2z"/>
		</g>
	</g>
	<g>
		<path class="st1" d="M428.6-362.6l1.8-0.4c0,0,0.1,0,0.1,0c0,0,0,0.1,0,0.1v4.5h1.1c0.1,0,0.1,0,0.1,0.1v0.4c0,0.1,0,0.1-0.1,0.1
			h-3c-0.1,0-0.1,0-0.1-0.1v-0.4c0-0.1,0-0.1,0.1-0.1h1.1v-3.8l-1.1,0.2c-0.1,0-0.1,0-0.1-0.1v-0.4
			C428.4-362.5,428.5-362.5,428.6-362.6z"/>
		<path class="st1" d="M433.4-358.4v0.6c0,0.1,0,0.1-0.1,0.1h-0.5c-0.1,0-0.1,0-0.1-0.1v-0.6c0-0.1,0-0.1,0.1-0.1h0.5
			C433.3-358.6,433.4-358.5,433.4-358.4z"/>
		<path class="st1" d="M435.3-360.7h0.6c0.3,0,0.6-0.1,0.7-0.2c0.1-0.1,0.2-0.3,0.2-0.5v-0.3c0-0.2-0.1-0.4-0.2-0.5
			c-0.1-0.1-0.4-0.2-0.7-0.2c-0.3,0-0.5,0.1-0.7,0.2c-0.1,0.1-0.2,0.3-0.2,0.5v0.1c0,0.1,0,0.1-0.1,0.1h-0.4c-0.1,0-0.1,0-0.1-0.1
			v-0.2c0-0.8,0.5-1.2,1.6-1.2c1.1,0,1.6,0.4,1.6,1.1v0.6c0,0.2,0,0.4-0.1,0.5c-0.1,0.1-0.3,0.2-0.5,0.3c0.5,0.1,0.7,0.4,0.7,0.9
			v0.8c0,0.8-0.5,1.1-1.6,1.1c-1.1,0-1.7-0.4-1.7-1.2v-0.2c0-0.1,0-0.1,0.1-0.1h0.5c0.1,0,0.1,0,0.1,0.1v0.1c0,0.4,0.3,0.7,0.9,0.7
			c0.6,0,0.9-0.2,0.9-0.7v-0.6c0-0.2-0.1-0.4-0.2-0.5c-0.1-0.1-0.4-0.2-0.7-0.2h-0.6c-0.1,0-0.1,0-0.1-0.1v-0.3
			C435.2-360.7,435.2-360.7,435.3-360.7z"/>
		<path class="st1" d="M439.9-362.9h0.5c0.1,0,0.2,0,0.2,0.1l1.5,4.9c0,0.1,0,0.1-0.1,0.1h-0.5c-0.1,0-0.1,0-0.2-0.1L441-359h-1.6
			l-0.4,1.2c0,0.1-0.1,0.1-0.2,0.1h-0.4c-0.1,0-0.1,0-0.1-0.1l1.5-4.9C439.8-362.8,439.8-362.9,439.9-362.9z M440.8-359.6l-0.4-1.4
			c0-0.1-0.1-0.3-0.1-0.6c0-0.3-0.1-0.4-0.1-0.5c0,0,0,0.1,0,0.2c0,0.1-0.1,0.3-0.1,0.5c0,0.2-0.1,0.3-0.1,0.4l-0.4,1.4H440.8z"/>
	</g>
	<g>
		<path class="st0" d="M411.5-384.5h0.5c0.1,0,0.2,0,0.2,0.1l1.5,4.9c0,0.1,0,0.1-0.1,0.1H413c-0.1,0-0.1,0-0.2-0.1l-0.4-1.2h-1.6
			l-0.4,1.2c0,0.1-0.1,0.1-0.2,0.1h-0.4c-0.1,0-0.1,0-0.1-0.1l1.5-4.9C411.3-384.4,411.4-384.5,411.5-384.5z M412.3-381.2l-0.4-1.4
			c0-0.1-0.1-0.3-0.1-0.6c0-0.3-0.1-0.4-0.1-0.5c0,0,0,0.1,0,0.2c0,0.1-0.1,0.3-0.1,0.5c0,0.2-0.1,0.3-0.1,0.4l-0.4,1.4H412.3z"/>
	</g>
	<g>
		<path class="st1" d="M352.2-384.3l-1,2.9h1.8v-2.9c0-0.1,0-0.2,0.1-0.2h0.5c0.1,0,0.1,0.1,0.1,0.2v4.9c0,0.1,0,0.2-0.1,0.2h-0.5
			c-0.1,0-0.1-0.1-0.1-0.2v-1.4h-2.4c-0.1,0-0.1,0-0.1-0.1v-0.3c0,0,0-0.1,0-0.2l1-2.9c0-0.1,0.1-0.2,0.2-0.2h0.5
			C352.2-384.5,352.2-384.4,352.2-384.3z"/>
		<path class="st1" d="M355.6-380v0.6c0,0.1,0,0.1-0.1,0.1H355c-0.1,0-0.1,0-0.1-0.1v-0.6c0-0.1,0-0.1,0.1-0.1h0.5
			C355.5-380.1,355.6-380.1,355.6-380z"/>
		<path class="st1" d="M357.4-379.9h2.3c0.1,0,0.1,0,0.1,0.1v0.4c0,0.1,0,0.1-0.1,0.1h-2.9c-0.1,0-0.1,0-0.1-0.1v-1.5
			c0-0.1,0-0.2,0.1-0.3c0-0.1,0.1-0.1,0.2-0.2c0.1-0.1,0.1-0.1,0.2-0.1c0.1,0,0.1-0.1,0.2-0.1l1.5-0.6c0.3-0.1,0.4-0.3,0.4-0.5v-0.6
			c0-0.2-0.1-0.4-0.2-0.5c-0.1-0.1-0.4-0.2-0.7-0.2c-0.3,0-0.6,0.1-0.7,0.2c-0.1,0.1-0.2,0.3-0.2,0.5v0.3c0,0.1,0,0.2-0.1,0.2h-0.4
			c-0.1,0-0.1-0.1-0.1-0.2v-0.4c0-0.8,0.5-1.2,1.6-1.2c1.1,0,1.7,0.4,1.7,1.2v0.7c0,0.5-0.2,0.9-0.7,1l-1.3,0.5
			c-0.1,0-0.2,0.1-0.2,0.1c-0.1,0-0.1,0.1-0.2,0.1c-0.1,0.1-0.1,0.1-0.1,0.2V-379.9z"/>
		<path class="st1" d="M362.1-384.5h0.5c0.1,0,0.2,0,0.2,0.1l1.5,4.9c0,0.1,0,0.1-0.1,0.1h-0.5c-0.1,0-0.1,0-0.2-0.1l-0.4-1.2h-1.6
			l-0.4,1.2c0,0.1-0.1,0.1-0.2,0.1h-0.4c-0.1,0-0.1,0-0.1-0.1l1.5-4.9C362-384.4,362-384.5,362.1-384.5z M363-381.2l-0.4-1.4
			c0-0.1-0.1-0.3-0.1-0.6c0-0.3-0.1-0.4-0.1-0.5c0,0,0,0.1,0,0.2c0,0.1-0.1,0.3-0.1,0.5c0,0.2-0.1,0.3-0.1,0.4l-0.4,1.4H363z"/>
	</g>
	<g>
		<path class="st0" d="M302.6-384.5h0.5c0.1,0,0.2,0,0.2,0.1l1.5,4.9c0,0.1,0,0.1-0.1,0.1h-0.5c-0.1,0-0.1,0-0.2-0.1l-0.4-1.2H302
			l-0.4,1.2c0,0.1-0.1,0.1-0.2,0.1H301c-0.1,0-0.1,0-0.1-0.1l1.5-4.9C302.4-384.4,302.5-384.5,302.6-384.5z M303.4-381.2l-0.4-1.4
			c0-0.1-0.1-0.3-0.1-0.6c0-0.3-0.1-0.4-0.1-0.5c0,0,0,0.1,0,0.2c0,0.1-0.1,0.3-0.1,0.5c0,0.2-0.1,0.3-0.1,0.4l-0.4,1.4H303.4z"/>
	</g>
	<g>
		<path class="st1" d="M430-307.2l-1,2.9h1.8v-2.9c0-0.1,0-0.2,0.1-0.2h0.5c0.1,0,0.1,0.1,0.1,0.2v4.9c0,0.1,0,0.2-0.1,0.2h-0.5
			c-0.1,0-0.1-0.1-0.1-0.2v-1.4h-2.4c-0.1,0-0.1,0-0.1-0.1v-0.3c0,0,0-0.1,0-0.2l1-2.9c0-0.1,0.1-0.2,0.2-0.2h0.5
			C430-307.4,430-307.3,430-307.2z"/>
		<path class="st1" d="M433.9-307.4h0.5c0.1,0,0.2,0,0.2,0.1l1.5,4.9c0,0.1,0,0.1-0.1,0.1h-0.5c-0.1,0-0.1,0-0.2-0.1l-0.4-1.2h-1.6
			l-0.4,1.2c0,0.1-0.1,0.1-0.2,0.1h-0.4c-0.1,0-0.1,0-0.1-0.1l1.5-4.9C433.8-307.3,433.8-307.4,433.9-307.4z M434.8-304.1l-0.4-1.4
			c0-0.1-0.1-0.3-0.1-0.6c0-0.3-0.1-0.4-0.1-0.5c0,0,0,0.1,0,0.2c0,0.1-0.1,0.3-0.1,0.5c0,0.2-0.1,0.3-0.1,0.4l-0.4,1.4H434.8z"/>
	</g>
	<g>
		<path class="st1" d="M428.3-251.9v-3c0-0.4,0.1-0.6,0.4-0.9c0.3-0.2,0.7-0.3,1.3-0.3c0.6,0,1,0.1,1.3,0.3c0.3,0.2,0.4,0.5,0.4,0.9
			v3c0,0.4-0.1,0.6-0.4,0.9c-0.3,0.2-0.7,0.3-1.3,0.3c-0.6,0-1-0.1-1.3-0.3C428.5-251.3,428.3-251.6,428.3-251.9z M430.9-252v-2.7
			c0-0.4-0.3-0.7-0.9-0.7c-0.3,0-0.6,0.1-0.7,0.2c-0.1,0.1-0.2,0.3-0.2,0.5v2.7c0,0.2,0.1,0.4,0.2,0.5c0.1,0.1,0.4,0.2,0.7,0.2
			C430.6-251.4,430.9-251.6,430.9-252z"/>
		<path class="st1" d="M433.4-251.5v0.6c0,0.1,0,0.1-0.1,0.1h-0.5c-0.1,0-0.1,0-0.1-0.1v-0.6c0-0.1,0-0.1,0.1-0.1h0.5
			C433.3-251.7,433.4-251.6,433.4-251.5z"/>
		<path class="st1" d="M437.6-254.9v3c0,0.3-0.1,0.6-0.4,0.8c-0.2,0.2-0.7,0.3-1.2,0.3c-1.1,0-1.6-0.4-1.6-1.2v-0.2
			c0-0.1,0-0.1,0.1-0.1h0.4c0.1,0,0.1,0,0.1,0.1v0.1c0,0.2,0.1,0.4,0.2,0.5c0.1,0.1,0.4,0.2,0.7,0.2c0.3,0,0.5-0.1,0.7-0.2
			c0.1-0.1,0.2-0.3,0.2-0.5v-1.2c-0.2,0.2-0.5,0.3-1,0.3c-0.5,0-0.9-0.1-1.2-0.3c-0.2-0.2-0.4-0.5-0.4-0.9v-0.8
			c0-0.8,0.5-1.2,1.6-1.2C437.1-256.1,437.6-255.7,437.6-254.9z M436.9-254.1v-0.7c0-0.2-0.1-0.4-0.2-0.5c-0.1-0.1-0.4-0.2-0.7-0.2
			c-0.3,0-0.6,0.1-0.7,0.2c-0.1,0.1-0.2,0.3-0.2,0.5v0.6c0,0.2,0.1,0.4,0.2,0.5c0.1,0.1,0.4,0.2,0.7,0.2c0.3,0,0.5-0.1,0.7-0.2
			C436.8-253.7,436.9-253.9,436.9-254.1z"/>
		<path class="st1" d="M439.9-256h0.5c0.1,0,0.2,0,0.2,0.1l1.5,4.9c0,0.1,0,0.1-0.1,0.1h-0.5c-0.1,0-0.1,0-0.2-0.1l-0.4-1.2h-1.6
			l-0.4,1.2c0,0.1-0.1,0.1-0.2,0.1h-0.4c-0.1,0-0.1,0-0.1-0.1l1.5-4.9C439.8-256,439.8-256,439.9-256z M440.8-252.7l-0.4-1.4
			c0-0.1-0.1-0.3-0.1-0.6c0-0.3-0.1-0.4-0.1-0.5c0,0,0,0.1,0,0.2c0,0.1-0.1,0.3-0.1,0.5c0,0.2-0.1,0.3-0.1,0.4l-0.4,1.4H440.8z"/>
	</g>
	<g>
		<g>
			<line class="st4" x1="292.3" y1="-346.4" x2="292.8" y2="-346.4"/>
			<line class="st5" x1="293.8" y1="-346.4" x2="421.2" y2="-346.4"/>
			<line class="st4" x1="421.7" y1="-346.4" x2="422.2" y2="-346.4"/>
		</g>
	</g>
	<g>
		<g>
			<line class="st4" x1="292.3" y1="-262.5" x2="292.8" y2="-262.5"/>
			<line class="st5" x1="293.8" y1="-262.5" x2="421.2" y2="-262.5"/>
			<line class="st4" x1="421.7" y1="-262.5" x2="422.2" y2="-262.5"/>
		</g>
	</g>
	<g>
		<g>
			<polyline class="st4" points="422.2,-244.2 422.2,-243.7 421.7,-243.7 			"/>
			<line class="st5" x1="420.7" y1="-243.7" x2="293.3" y2="-243.7"/>
			<polyline class="st4" points="292.8,-243.7 292.3,-243.7 292.3,-244.2 			"/>
			<line class="st5" x1="292.3" y1="-245.2" x2="292.3" y2="-372.6"/>
			<polyline class="st4" points="292.3,-373.1 292.3,-373.6 292.8,-373.6 			"/>
			<line class="st5" x1="293.8" y1="-373.6" x2="421.2" y2="-373.6"/>
			<polyline class="st4" points="421.7,-373.6 422.2,-373.6 422.2,-373.1 			"/>
			<line class="st5" x1="422.2" y1="-372.1" x2="422.2" y2="-244.7"/>
		</g>
	</g>
	<line class="st2" x1="401.2" y1="-373.6" x2="401.2" y2="-243.7"/>
	<line class="st2" x1="313.3" y1="-373.6" x2="313.3" y2="-243.7"/>
</g>
<g>
	<g>
		<line class="st2" x1="5.8" y1="-197.7" x2="5.8" y2="-104.2"/>
		<line class="st2" x1="511.1" y1="-197.7" x2="511.1" y2="-104.2"/>
		<line class="st2" x1="-17.6" y1="-174.3" x2="534.5" y2="-174.3"/>
		<line class="st2" x1="-17.6" y1="-127.6" x2="534.5" y2="-127.6"/>
		<rect x="-17.6" y="-197.7" class="st2" width="552.1" height="93.5"/>
	</g>
	<g>
		<path class="st0" d="M542-188.9h0.5c0.1,0,0.2,0,0.2,0.1l1.5,4.9c0,0.1,0,0.1-0.1,0.1h-0.5c-0.1,0-0.1,0-0.2-0.1L543-185h-1.6
			l-0.4,1.2c0,0.1-0.1,0.1-0.2,0.1h-0.4c-0.1,0-0.1,0-0.1-0.1l1.5-4.9C541.9-188.8,541.9-188.9,542-188.9z M542.9-185.6l-0.4-1.4
			c0-0.1-0.1-0.3-0.1-0.6c0-0.3-0.1-0.4-0.1-0.5c0,0,0,0.1,0,0.2c0,0.1-0.1,0.3-0.1,0.5c0,0.2-0.1,0.3-0.1,0.4l-0.4,1.4H542.9z"/>
	</g>
	<g>
		<path class="st0" d="M542-118.7h0.5c0.1,0,0.2,0,0.2,0.1l1.5,4.9c0,0.1,0,0.1-0.1,0.1h-0.5c-0.1,0-0.1,0-0.2-0.1l-0.4-1.2h-1.6
			l-0.4,1.2c0,0.1-0.1,0.1-0.2,0.1h-0.4c-0.1,0-0.1,0-0.1-0.1l1.5-4.9C541.9-118.7,541.9-118.7,542-118.7z M542.9-115.4l-0.4-1.4
			c0-0.1-0.1-0.3-0.1-0.6c0-0.3-0.1-0.4-0.1-0.5c0,0,0,0.1,0,0.2c0,0.1-0.1,0.3-0.1,0.5c0,0.2-0.1,0.3-0.1,0.4l-0.4,1.4H542.9z"/>
	</g>
	<g>
		<path class="st0" d="M522.6-208.6h0.5c0.1,0,0.2,0,0.2,0.1l1.5,4.9c0,0.1,0,0.1-0.1,0.1h-0.5c-0.1,0-0.1,0-0.2-0.1l-0.4-1.2H522
			l-0.4,1.2c0,0.1-0.1,0.1-0.2,0.1H521c-0.1,0-0.1,0-0.1-0.1l1.5-4.9C522.4-208.5,522.5-208.6,522.6-208.6z M523.4-205.3l-0.4-1.4
			c0-0.1-0.1-0.3-0.1-0.6c0-0.3-0.1-0.4-0.1-0.5c0,0,0,0.1,0,0.2c0,0.1-0.1,0.3-0.1,0.5c0,0.2-0.1,0.3-0.1,0.4l-0.4,1.4H523.4z"/>
	</g>
	<g>
		<path class="st1" d="M541.5-149.4h2.3c0.1,0,0.1,0,0.1,0.1v0.4c0,0.1,0,0.1-0.1,0.1h-2.9c-0.1,0-0.1,0-0.1-0.1v-1.5
			c0-0.1,0-0.2,0.1-0.3c0-0.1,0.1-0.2,0.2-0.2c0.1-0.1,0.1-0.1,0.2-0.1c0.1,0,0.1-0.1,0.2-0.1l1.5-0.6c0.3-0.1,0.4-0.3,0.4-0.5v-0.6
			c0-0.2-0.1-0.4-0.2-0.5c-0.1-0.1-0.4-0.2-0.7-0.2c-0.3,0-0.6,0.1-0.7,0.2c-0.1,0.1-0.2,0.3-0.2,0.5v0.3c0,0.1,0,0.2-0.1,0.2h-0.4
			c-0.1,0-0.1-0.1-0.1-0.2v-0.4c0-0.8,0.5-1.2,1.6-1.2c1.1,0,1.7,0.4,1.7,1.2v0.7c0,0.5-0.2,0.9-0.7,1l-1.3,0.5
			c-0.1,0-0.2,0.1-0.2,0.1c-0.1,0-0.1,0.1-0.2,0.1c-0.1,0.1-0.1,0.1-0.1,0.2V-149.4z"/>
		<path class="st1" d="M546.2-154h0.5c0.1,0,0.2,0,0.2,0.1l1.5,4.9c0,0.1,0,0.1-0.1,0.1h-0.5c-0.1,0-0.1,0-0.2-0.1l-0.4-1.2h-1.6
			l-0.4,1.2c0,0.1-0.1,0.1-0.2,0.1h-0.4c-0.1,0-0.1,0-0.1-0.1l1.5-4.9C546.1-153.9,546.1-154,546.2-154z M547.1-150.7l-0.4-1.4
			c0-0.1-0.1-0.3-0.1-0.6c0-0.3-0.1-0.4-0.1-0.5c0,0,0,0.1,0,0.2c0,0.1-0.1,0.3-0.1,0.5c0,0.2-0.1,0.3-0.1,0.4l-0.4,1.4H547.1z"/>
	</g>
	<path class="st1" d="M110.5-207.4v3c0,0.3-0.1,0.6-0.4,0.8c-0.2,0.2-0.7,0.3-1.2,0.3c-1.1,0-1.6-0.4-1.6-1.1v-0.2
		c0-0.1,0-0.1,0.1-0.1h0.4c0.1,0,0.1,0,0.1,0.1v0.1c0,0.2,0.1,0.4,0.2,0.5c0.1,0.1,0.4,0.2,0.7,0.2c0.3,0,0.5-0.1,0.7-0.2
		c0.1-0.1,0.2-0.3,0.2-0.5v-1.2c-0.2,0.2-0.5,0.3-1,0.3c-0.5,0-0.9-0.1-1.2-0.3c-0.2-0.2-0.4-0.5-0.4-0.9v-0.8
		c0-0.8,0.5-1.2,1.6-1.2C110-208.6,110.5-208.2,110.5-207.4z M109.8-206.7v-0.7c0-0.2-0.1-0.4-0.2-0.5c-0.1-0.1-0.4-0.2-0.7-0.2
		c-0.3,0-0.6,0.1-0.7,0.2c-0.1,0.1-0.2,0.3-0.2,0.5v0.6c0,0.2,0.1,0.4,0.2,0.5c0.1,0.1,0.4,0.2,0.7,0.2c0.3,0,0.5-0.1,0.7-0.2
		C109.7-206.3,109.8-206.5,109.8-206.7z"/>
	<path class="st1" d="M112.8-208.6h0.5c0.1,0,0.2,0,0.2,0.1l1.5,4.9c0,0.1,0,0.1-0.1,0.1h-0.5c-0.1,0-0.1,0-0.2-0.1l-0.4-1.2h-1.6
		l-0.4,1.2c0,0.1-0.1,0.1-0.2,0.1h-0.4c-0.1,0-0.1,0-0.1-0.1l1.5-4.9C112.7-208.5,112.7-208.6,112.8-208.6z M113.7-205.3l-0.4-1.4
		c0-0.1-0.1-0.3-0.1-0.6c0-0.3-0.1-0.4-0.1-0.5c0,0,0,0.1,0,0.2c0,0.1-0.1,0.3-0.1,0.5c0,0.2-0.1,0.3-0.1,0.4l-0.4,1.4H113.7z"/>
	<rect x="511.1" y="-197.7" class="st3" width="23.4" height="23.3"/>
	<g>
		<path class="st0" d="M-6.2-208.6h0.5c0.1,0,0.2,0,0.2,0.1l1.5,4.9c0,0.1,0,0.1-0.1,0.1h-0.5c-0.1,0-0.1,0-0.2-0.1l-0.4-1.2h-1.6
			l-0.4,1.2c0,0.1-0.1,0.1-0.2,0.1h-0.4c-0.1,0-0.1,0-0.1-0.1l1.5-4.9C-6.3-208.5-6.3-208.6-6.2-208.6z M-5.3-205.3l-0.4-1.4
			c0-0.1-0.1-0.3-0.1-0.6c0-0.3-0.1-0.4-0.1-0.5c0,0,0,0.1,0,0.2c0,0.1-0.1,0.3-0.1,0.5c0,0.2-0.1,0.3-0.1,0.4l-0.4,1.4H-5.3z"/>
	</g>
	<line class="st2" x1="217.1" y1="-197.7" x2="217.1" y2="-104.2"/>
	<line class="st2" x1="240.1" y1="-197.7" x2="240.1" y2="-104.2"/>
	<g>
		<path class="st0" d="M228.6-208.6h0.5c0.1,0,0.2,0,0.2,0.1l1.5,4.9c0,0.1,0,0.1-0.1,0.1h-0.5c-0.1,0-0.1,0-0.2-0.1l-0.4-1.2H228
			l-0.4,1.2c0,0.1-0.1,0.1-0.2,0.1H227c-0.1,0-0.1,0-0.1-0.1l1.5-4.9C228.4-208.5,228.5-208.6,228.6-208.6z M229.4-205.3l-0.4-1.4
			c0-0.1-0.1-0.3-0.1-0.6c0-0.3-0.1-0.4-0.1-0.5c0,0,0,0.1,0,0.2c0,0.1-0.1,0.3-0.1,0.5c0,0.2-0.1,0.3-0.1,0.4l-0.4,1.4H229.4z"/>
	</g>
	<g>
		<path class="st1" d="M382.8-208.6h0.5c0.1,0,0.2,0,0.2,0.1l1.5,4.9c0,0.1,0,0.1-0.1,0.1h-0.5c-0.1,0-0.1,0-0.2-0.1l-0.4-1.2h-1.6
			l-0.4,1.2c0,0.1-0.1,0.1-0.2,0.1h-0.4c-0.1,0-0.1,0-0.1-0.1l1.5-4.9C382.6-208.5,382.7-208.6,382.8-208.6z M383.6-205.3l-0.4-1.4
			c0-0.1-0.1-0.3-0.1-0.6c0-0.3-0.1-0.4-0.1-0.5c0,0,0,0.1,0,0.2c0,0.1-0.1,0.3-0.1,0.5c0,0.2-0.1,0.3-0.1,0.4l-0.4,1.4H383.6z"/>
		<g>
			<path class="st1" d="M367.7-208.7c0.1,0,0.1,0,0.1,0.1v4.7h1.2c0.1,0,0.2,0,0.2,0.1v0.4c0,0.1,0,0.2-0.2,0.2h-3.2
				c-0.1,0-0.2,0-0.2-0.2v-0.4c0-0.1,0-0.1,0.2-0.1h1.2v-4l-1.2,0.2c-0.1,0-0.2,0-0.2-0.1v-0.4c0-0.1,0.1-0.2,0.2-0.2L367.7-208.7z"
				/>
			<path class="st1" d="M373.3-203.9c0.1,0,0.2,0,0.2,0.1v0.4c0,0.1,0,0.2-0.2,0.2h-3.1c-0.1,0-0.2,0-0.2-0.2v-1.5
				c0-0.5,0.4-0.6,0.6-0.7l1.6-0.6c0.2-0.1,0.4-0.2,0.4-0.5v-0.7c0-0.4-0.2-0.7-1-0.7c-0.7,0-0.9,0.3-0.9,0.7v0.3
				c0,0.1,0,0.2-0.1,0.2h-0.5c-0.1,0-0.2,0-0.2-0.2v-0.5c0-0.7,0.4-1.2,1.7-1.2s1.7,0.6,1.7,1.2v0.8c0,0.7-0.5,1-0.7,1.1l-1.4,0.5
				c-0.2,0.1-0.5,0.2-0.5,0.5v0.8H373.3z"/>
			<path class="st1" d="M375.2-203.4c0,0.1,0,0.2-0.1,0.2h-0.5c-0.1,0-0.2,0-0.2-0.2v-0.6c0-0.1,0-0.2,0.2-0.2h0.5
				c0.1,0,0.1,0,0.1,0.2V-203.4z"/>
			<path class="st1" d="M379.4-208.7c0.1,0,0.2,0,0.2,0.2v0.4c0,0.1,0,0.2-0.2,0.2h-2.1v1.4h0.7c1.2,0,1.7,0.5,1.7,1.2v1.1
				c0,0.7-0.4,1.2-1.7,1.2c-1.3,0-1.7-0.6-1.7-1.2v-0.2c0-0.1,0-0.2,0.2-0.2h0.5c0.1,0,0.2,0,0.2,0.2v0.1c0,0.4,0.2,0.7,0.9,0.7
				c0.7,0,0.9-0.2,0.9-0.7v-0.9c0-0.4-0.2-0.6-0.9-0.6h-1.4c-0.1,0-0.1,0-0.1-0.2v-2.4c0-0.1,0-0.2,0.1-0.2H379.4z"/>
		</g>
	</g>
</g>
<g>
	<g>
		<g>
			<path class="st0" d="M27.5-361.6c1.3,0,2.1,0.7,2.6,2.1l12.4,42.6c0.4,1.4-0.1,2.1-1.5,2.1h-7.6c-1.2,0-2-0.7-2.4-2.1l-1.8-6.6
				H17.7l-1.8,6.6c-0.4,1.4-1.2,2.1-2.4,2.1H6.6c-1.4,0-1.9-0.7-1.5-2.1l12.4-42.6c0.4-1.4,1.3-2.1,2.5-2.1H27.5z M26.7-332.5
				l-1-3.7c-0.6-2.3-1.3-8-2.1-15.2c-1.2,8.2-1.9,13.8-2.3,15.2l-1,3.7H26.7z"/>
		</g>
		<g>
			<path class="st0" d="M58.4-359.6v35.4h12.6c1.4,0,2.1,0.6,2.1,1.9v5.4c0,1.3-0.7,2-2.1,2H48.4c-1.1,0-1.7-0.7-1.7-2.1v-42.6
				c0-1.4,0.7-2.1,2-2.1h7.9C57.8-361.6,58.4-360.9,58.4-359.6z"/>
		</g>
		<g>
			<path class="st0" d="M89.7-359.6v35.4h12.6c1.4,0,2.1,0.6,2.1,1.9v5.4c0,1.3-0.7,2-2.1,2H79.7c-1.1,0-1.7-0.7-1.7-2.1v-42.6
				c0-1.4,0.7-2.1,2-2.1h7.9C89.1-361.6,89.7-360.9,89.7-359.6z"/>
		</g>
		<g>
			<path class="st0" d="M135.9-359.6l4.6,19.2c0.5,2.1,0.9,5,1.1,7.9c0.4-3.3,0.8-6.2,1.2-7.8l4.7-19.2c0.4-1.4,1.1-2.1,2.4-2.1h6.3
				c1.3,0,1.8,0.7,1.5,2.1l-10.5,42.6c-0.3,1.4-1.1,2.1-2.5,2.1h-7.1c-1.1,0-1.9-0.7-2.2-2.1l-4.9-19.8c-0.4-1.6-0.7-3.9-0.9-6.9
				c-0.3,2.9-0.6,5.2-1,7l-4.9,19.7c-0.3,1.4-1.1,2.1-2.5,2.1h-7.1c-1.1,0-1.9-0.7-2.2-2.1l-10.5-42.6c-0.4-1.4,0.1-2.1,1.5-2.1h7.4
				c1.2,0,2,0.7,2.4,2.1l4.6,19.2c0.1,0.6,0.3,1.4,0.4,2.3c0.2,0.9,0.3,1.7,0.4,2.5c0.1,0.8,0.2,2.4,0.2,2.6
				c0.3-1.8,0.7-5.1,1.2-7.4l4.8-19.2c0.4-1.4,1.2-2.1,2.4-2.1h6.8C134.8-361.6,135.6-360.9,135.9-359.6z"/>
		</g>
		<g>
			<path class="st0" d="M173.4-359.6v42.6c0,1.4-0.6,2.1-1.9,2.1H164c-1.3,0-2-0.7-2-2.1v-42.6c0-1.4,0.7-2.1,2-2.1h7.4
				C172.8-361.6,173.4-360.9,173.4-359.6z"/>
		</g>
		<g>
			<path class="st0" d="M215.3-359.6v42.6c0,1.4-0.6,2.1-1.9,2.1h-6.7c-0.9,0-1.5-0.3-1.9-1l-11-18.3c-0.9-1.5-1.9-3.5-3-6.2v23.4
				c0,1.4-0.6,2.1-1.9,2.1h-6.7c-1.3,0-2-0.7-2-2.1v-42.6c0-1.4,0.7-2.1,2-2.1h6.7c0.9,0,1.4,0.3,1.7,0.8l11.6,19.5
				c0.6,1.1,1.4,2.8,2.4,5.2v-23.4c0-1.4,0.7-2.1,2-2.1h6.7C214.7-361.6,215.3-360.9,215.3-359.6z"/>
		</g>
	</g>
	<g>
		<path class="st0" d="M21.7-292.5c0-2.4-1.7-3.3-4.1-3.3c-2.4,0-4.2,0.9-4.2,3.3v0.5c0,1.4,1.1,2.1,1.7,2.3l8.9,3
			c3.9,1.3,6.6,4.1,6.6,8v3.7c0,4.5-3.2,9-13.1,9s-13.2-4.5-13.2-9v-3.5c0-1.1,0.4-1.6,1.5-1.6h5.5c1.1,0,1.5,0.5,1.5,1.6v2.4
			c0,2.4,2.1,3.3,4.6,3.3c2.6,0,4.7-0.9,4.7-3.3v-1.1c0-1.9-2.5-2.8-4.5-3.5l-7.6-2.8c-2.7-1-4.9-4-4.9-7v-3.1c0-4.5,2.7-9,12.5-9
			s12.7,4.5,12.7,9v2c0,1.1-0.4,1.6-1.5,1.6h-5.5c-1.1,0-1.5-0.5-1.5-1.6V-292.5z"/>
		<path class="st0" d="M61-275c0,4.5-3.1,9-13,9s-13-4.5-13-9v-18.7c0-4.5,3.1-9,13-9s13,4.5,13,9v2.4c0,1.1-0.4,1.6-1.5,1.6h-5.4
			c-1.1,0-1.5-0.5-1.5-1.6v-0.9c0-2.4-1.8-3.4-4.4-3.4c-2.6,0-4.4,1-4.4,3.4v15.6c0,2.4,1.8,3.4,4.4,3.4c2.6,0,4.4-1,4.4-3.4v-1.7
			c0-1.1,0.4-1.6,1.5-1.6h5.4c1.1,0,1.5,0.5,1.5,1.6V-275z"/>
		<path class="st0" d="M82.6-300.6l9.5,32.7c0.3,1-0.1,1.6-1.2,1.6h-5.9c-1.1,0-1.6-0.6-1.8-1.6l-1.4-5.1h-8.8l-1.4,5.1
			c-0.3,1-0.7,1.6-1.8,1.6h-5.3c-1.1,0-1.5-0.6-1.2-1.6l9.5-32.7c0.3-1.1,0.8-1.6,2-1.6h5.7C81.7-302.2,82.3-301.7,82.6-300.6z
			 M79.3-282.7c-0.8-3.2-1.6-10.5-1.6-11c-0.1,0.7-0.9,8-1.8,11l-0.8,2.8h5L79.3-282.7z"/>
		<path class="st0" d="M122.8-268c0,1.1-0.4,1.6-1.5,1.6h-5.2c-0.8,0-1.1-0.2-1.4-0.7l-8.4-14c-0.9-1.4-1.7-3.3-2.3-4.7v17.9
			c0,1.1-0.4,1.6-1.5,1.6h-5.2c-1.1,0-1.5-0.5-1.5-1.6v-32.7c0-1.1,0.4-1.6,1.5-1.6h5.2c0.7,0,1.1,0.2,1.3,0.6l8.9,14.9
			c0.6,1.1,1.3,2.7,1.8,4v-17.9c0-1.1,0.4-1.6,1.5-1.6h5.2c1.1,0,1.5,0.5,1.5,1.6V-268z"/>
		<path class="st0" d="M156.1-268c0,1.1-0.4,1.6-1.5,1.6h-5.2c-0.8,0-1.1-0.2-1.4-0.7l-8.4-14c-0.9-1.4-1.7-3.3-2.3-4.7v17.9
			c0,1.1-0.4,1.6-1.5,1.6h-5.2c-1.1,0-1.5-0.5-1.5-1.6v-32.7c0-1.1,0.4-1.6,1.5-1.6h5.2c0.7,0,1.1,0.2,1.3,0.6l8.9,14.9
			c0.6,1.1,1.3,2.7,1.8,4v-17.9c0-1.1,0.4-1.6,1.5-1.6h5.2c1.1,0,1.5,0.5,1.5,1.6V-268z"/>
		<path class="st0" d="M163.9-266.4c-1.1,0-1.5-0.5-1.5-1.6v-32.7c0-1.1,0.4-1.6,1.5-1.6h18c1.1,0,1.6,0.4,1.6,1.5v4.1
			c0,1.1-0.5,1.5-1.6,1.5h-10.9v6.9h10c1.1,0,1.6,0.4,1.6,1.5v3.8c0,1.1-0.5,1.5-1.6,1.5h-10v7.9h11.4c1.1,0,1.6,0.4,1.6,1.5v4.1
			c0,1.1-0.5,1.5-1.6,1.5H163.9z"/>
		<path class="st0" d="M209.9-280.9l5.2,13c0.4,0.9-0.3,1.6-1.5,1.6h-5.7c-1,0-1.2-0.8-1.5-1.6l-4.6-11.7h-4v11.7
			c0,1.1-0.4,1.6-1.5,1.6h-5.7c-1.1,0-1.5-0.5-1.5-1.6v-32.7c0-1.1,0.4-1.6,1.5-1.6H202c9.9,0,13.4,4.5,13.4,9v4.6
			C215.4-285.6,213.9-282.6,209.9-280.9z M197.8-295.1v8.4h4.2c2.6,0,4.8-1,4.8-3.4v-1.5c0-2.4-2.2-3.4-4.8-3.4H197.8z"/>
	</g>
</g>
<g>
	<g>
		<g>
			<path class="st0" d="M22.6,0.2c1.3,0,2.1,0.7,2.6,2.1l12.4,42.6c0.4,1.4-0.1,2.1-1.5,2.1h-7.6c-1.2,0-2-0.7-2.4-2.1l-1.8-6.6
				H12.8L11,44.9c-0.4,1.4-1.2,2.1-2.4,2.1H1.7c-1.4,0-1.9-0.7-1.5-2.1L12.6,2.3c0.4-1.4,1.3-2.1,2.5-2.1H22.6z M21.7,29.3l-1-3.7
				c-0.6-2.3-1.3-8-2.1-15.2c-1.2,8.2-1.9,13.8-2.3,15.2l-1,3.7H21.7z"/>
		</g>
		<g>
			<path class="st0" d="M53.5,2.3v35.4h12.6c1.4,0,2.1,0.6,2.1,1.9V45c0,1.3-0.7,2-2.1,2H43.5c-1.1,0-1.7-0.7-1.7-2.1V2.3
				c0-1.4,0.7-2.1,2-2.1h7.9C52.9,0.2,53.5,0.9,53.5,2.3z"/>
		</g>
		<g>
			<path class="st0" d="M84.8,2.3v35.4h12.6c1.4,0,2.1,0.6,2.1,1.9V45c0,1.3-0.7,2-2.1,2H74.7c-1.1,0-1.7-0.7-1.7-2.1V2.3
				c0-1.4,0.7-2.1,2-2.1h7.9C84.1,0.2,84.8,0.9,84.8,2.3z"/>
		</g>
		<g>
			<path class="st0" d="M131,2.3l4.6,19.2c0.5,2.1,0.9,5,1.1,7.9c0.4-3.3,0.8-6.2,1.2-7.8l4.7-19.2c0.4-1.4,1.1-2.1,2.4-2.1h6.3
				c1.3,0,1.8,0.7,1.5,2.1l-10.5,42.6c-0.3,1.4-1.1,2.1-2.5,2.1h-7.1c-1.1,0-1.9-0.7-2.2-2.1l-4.9-19.8c-0.4-1.6-0.7-3.9-0.9-6.9
				c-0.3,2.9-0.6,5.2-1,7l-4.9,19.7c-0.3,1.4-1.1,2.1-2.5,2.1h-7.1c-1.1,0-1.9-0.7-2.2-2.1L96.5,2.3c-0.4-1.4,0.1-2.1,1.5-2.1h7.4
				c1.2,0,2,0.7,2.4,2.1l4.6,19.2c0.1,0.6,0.3,1.4,0.4,2.3c0.2,0.9,0.3,1.7,0.4,2.5c0.1,0.8,0.2,2.4,0.2,2.6
				c0.3-1.8,0.7-5.1,1.2-7.4l4.8-19.2c0.4-1.4,1.2-2.1,2.4-2.1h6.8C129.8,0.2,130.6,0.9,131,2.3z"/>
		</g>
		<g>
			<path class="st0" d="M168.5,2.3v42.6c0,1.4-0.6,2.1-1.9,2.1h-7.4c-1.3,0-2-0.7-2-2.1V2.3c0-1.4,0.7-2.1,2-2.1h7.4
				C167.8,0.2,168.5,0.9,168.5,2.3z"/>
		</g>
		<g>
			<path class="st0" d="M210.4,2.3v42.6c0,1.4-0.6,2.1-1.9,2.1h-6.7c-0.9,0-1.5-0.3-1.9-1l-11-18.3c-0.9-1.5-1.9-3.5-3-6.2v23.4
				c0,1.4-0.6,2.1-1.9,2.1h-6.7c-1.3,0-2-0.7-2-2.1V2.3c0-1.4,0.7-2.1,2-2.1h6.7c0.9,0,1.4,0.3,1.7,0.8l11.6,19.5
				c0.6,1.1,1.4,2.8,2.4,5.2V2.3c0-1.4,0.7-2.1,2-2.1h6.7C209.8,0.2,210.4,0.9,210.4,2.3z"/>
		</g>
	</g>
	<g>
		<path class="st0" d="M256.3,13c0-3.1-2.2-4.3-5.3-4.3c-3.1,0-5.3,1.1-5.3,4.3v0.7c0,1.8,1.4,2.6,2.2,2.9l11.3,3.8
			c5,1.7,8.4,5.2,8.4,10.2v4.8c0,5.8-4.1,11.5-16.8,11.5c-12.7,0-16.9-5.7-16.9-11.5v-4.5c0-1.4,0.5-2,2-2h7c1.4,0,1.9,0.6,1.9,2v3
			c0,3.1,2.6,4.3,5.9,4.3s6-1.1,6-4.3v-1.4c0-2.4-3.2-3.6-5.8-4.5l-9.7-3.6c-3.4-1.3-6.3-5.1-6.3-9v-3.9c0-5.8,3.5-11.5,16-11.5
			c12.5,0,16.3,5.7,16.3,11.5V14c0,1.4-0.5,2-2,2h-7c-1.4,0-1.9-0.6-1.9-2V13z"/>
		<path class="st0" d="M306.6,35.4c0,5.8-3.9,11.5-16.6,11.5s-16.6-5.7-16.6-11.5V11.5C273.4,5.7,277.3,0,290,0s16.6,5.7,16.6,11.5
			v3.1c0,1.4-0.5,2-1.9,2h-7c-1.4,0-2-0.6-2-2v-1.1c0-3.1-2.4-4.4-5.7-4.4s-5.6,1.3-5.6,4.4v20c0,3.1,2.3,4.4,5.6,4.4
			s5.7-1.3,5.7-4.4v-2.2c0-1.4,0.5-2,2-2h7c1.4,0,1.9,0.6,1.9,2V35.4z"/>
		<path class="st0" d="M334.2,2.6l12.2,41.9c0.4,1.3-0.1,2-1.5,2h-7.5c-1.4,0-2-0.7-2.4-2l-1.8-6.5h-11.2l-1.8,6.5
			c-0.3,1.3-0.9,2-2.4,2h-6.8c-1.4,0-1.9-0.7-1.5-2l12.2-41.9c0.4-1.4,1.1-2,2.5-2h7.3C333.1,0.5,333.8,1.2,334.2,2.6z M330,25.5
			c-1.1-4.1-2-13.5-2.1-14.1c-0.1,0.9-1.2,10.2-2.3,14.1l-1,3.6h6.3L330,25.5z"/>
		<path class="st0" d="M385.7,44.4c0,1.4-0.5,2-1.9,2h-6.6c-1,0-1.4-0.3-1.8-0.9l-10.8-18c-1.1-1.8-2.2-4.2-2.9-6.1v23
			c0,1.4-0.5,2-1.9,2h-6.6c-1.4,0-2-0.6-2-2V2.6c0-1.4,0.5-2,2-2h6.6c0.9,0,1.4,0.3,1.7,0.8l11.4,19.1c0.8,1.4,1.7,3.4,2.4,5.1v-23
			c0-1.4,0.5-2,2-2h6.6c1.4,0,1.9,0.6,1.9,2V44.4z"/>
		<path class="st0" d="M428.3,44.4c0,1.4-0.5,2-1.9,2h-6.6c-1,0-1.4-0.3-1.8-0.9l-10.8-18c-1.1-1.8-2.2-4.2-2.9-6.1v23
			c0,1.4-0.5,2-1.9,2h-6.6c-1.4,0-2-0.6-2-2V2.6c0-1.4,0.5-2,2-2h6.6c0.9,0,1.4,0.3,1.7,0.8l11.4,19.1c0.8,1.4,1.7,3.4,2.4,5.1v-23
			c0-1.4,0.5-2,2-2h6.6c1.4,0,1.9,0.6,1.9,2V44.4z"/>
		<path class="st0" d="M438.4,46.4c-1.4,0-2-0.6-2-2V2.6c0-1.4,0.5-2,2-2h23.1c1.4,0,2,0.5,2,1.9v5.3c0,1.4-0.6,2-2,2h-13.9v8.8
			h12.8c1.4,0,2,0.5,2,1.9v4.9c0,1.4-0.6,2-2,2h-12.8v10.1h14.6c1.4,0,2,0.5,2,1.9v5.3c0,1.4-0.6,2-2,2H438.4z"/>
		<path class="st0" d="M497.2,27.8l6.6,16.6c0.5,1.2-0.4,2-1.9,2h-7.3c-1.3,0-1.6-1.1-2-2l-5.9-14.9h-5.1v14.9c0,1.4-0.5,2-1.9,2
			h-7.3c-1.4,0-2-0.6-2-2V2.6c0-1.4,0.5-2,2-2h14.6c12.7,0,17.1,5.7,17.1,11.5V18C504.3,21.8,502.3,25.7,497.2,27.8z M481.7,9.7
			v10.7h5.4c3.3,0,6.1-1.3,6.1-4.4v-2c0-3.1-2.8-4.4-6.1-4.4H481.7z"/>
	</g>
</g>
<path class="st0" d="M326-346.4c-0.9,0-1.7,0.7-1.8,1.6c0,0,0,0,0,0l-10.9,80c0,0.1-0.1,0.3-0.1,0.5c0,0.1,0,0.2,0,0.3
	c0.1,0.9,0.9,1.5,1.8,1.5c0.7,0,1.3-0.4,1.6-0.9c0,0,0,0,0,0l11-19.6l0,0c0.1-0.1,0.1-0.3,0.1-0.4c0-0.5-0.4-0.9-0.9-0.9h-2.7
	c-1,0-1.8-0.8-1.8-1.8c0-1,0.8-1.8,1.8-1.8h67.9h0c1,0,1.8-0.8,1.8-1.8c0-0.2,0-0.3-0.1-0.5l0,0l-7.2-26.9l14.4-26.6l0,0
	c0.1-0.2,0.2-0.5,0.2-0.8c0-1-0.8-1.8-1.8-1.8H326z"/>
</svg>
