<?xml version="1.0" encoding="utf-8"?>
<!-- Generator: Adobe Illustrator 22.1.0, SVG Export Plug-In . SVG Version: 6.00 Build 0)  -->
<svg version="1.1" id="Capa_1" xmlns="http://www.w3.org/2000/svg" xmlns:xlink="http://www.w3.org/1999/xlink" x="0px" y="0px"
	 viewBox="0 0 574.2 650.2" style="enable-background:new 0 0 574.2 650.2;" xml:space="preserve">
<style type="text/css">
	.st0{fill:#EBAA2C;}
	.st1{display:none;opacity:0.53;}
</style>
<g>
	<g>
		<path class="st0" d="M287.1,650.2c27.7,0,49.9-22.7,49.4-50.4l-3-147.4c-0.1-2.5,1.2-4.8,3.3-6.2l234.1-146.8
			c2.1-1.3,3.3-3.6,3.3-6v-61.9c0-4.9-4.9-8.4-9.5-6.7l-234.1,84.5c-0.1,0-0.2,0-0.2-0.1l-3.1-200c0-2.3,1.1-4.5,3-5.9l51-36.6
			c1.9-1.3,3-3.5,3-5.8V7.2c0-5.2-5.5-8.7-10.2-6.4l-83.9,40.4c-1.9,0.9-4.2,0.9-6.2,0L200.1,0.7c-4.7-2.3-10.2,1.2-10.2,6.4v53.7
			c0,2.3,1.1,4.4,3,5.8l51,36.6c1.9,1.4,3,3.6,3,5.9l-3.1,199.5c0,0.3-0.4,0.6-0.7,0.5L9.5,224.8c-4.6-1.7-9.5,1.8-9.5,6.7v61.9
			c0,2.4,1.3,4.7,3.3,6l234.1,146.9c2.1,1.3,3.4,3.7,3.3,6.2l-3,147.4C237.1,627.5,259.4,650.2,287.1,650.2z"/>
	</g>
</g>
<g id="_x32_WIZL7.tif" class="st1">
	
		<image style="display:inline;overflow:visible;enable-background:new    ;" width="469" height="471" id="Layer_0_1_" xlink:href="B17C84BC.png"  transform="matrix(1.714 0 0 1.714 -111.2047 -71.4925)">
	</image>
</g>
</svg>
