<?xml version="1.0" encoding="utf-8"?>
<!-- Generator: Adobe Illustrator 22.1.0, SVG Export Plug-In . SVG Version: 6.00 Build 0)  -->
<svg version="1.1" id="Layer_1" xmlns="http://www.w3.org/2000/svg"  x="0px" y="0px"
	 viewBox="0 0 58.9 52.1" style="enable-background:new 0 0 58.9 52.1;" xml:space="preserve">
<style type="text/css">
	.st0{fill:#E3A531;}
</style>
<path class="st0" d="M7.9,0C7.4,0,6.9,0.4,6.8,1c0,0,0,0,0,0L0,50.7c0,0.1,0,0.2,0,0.3c0,0.1,0,0.1,0,0.2c0.1,0.5,0.6,0.9,1.1,0.9
	c0.4,0,0.8-0.2,1-0.6c0,0,0,0,0,0L9,39.4l0,0c0-0.1,0.1-0.2,0.1-0.3c0-0.3-0.3-0.6-0.6-0.6H6.8c-0.6,0-1.1-0.5-1.1-1.1
	c0-0.6,0.5-1.1,1.1-1.1h46.4c0.6,0,1.1-0.5,1.1-1.1c0-0.1,0-0.2-0.1-0.3l0,0l-4.5-16.7l9-16.5l0,0c0.1-0.1,0.1-0.3,0.1-0.5
	c0-0.6-0.5-1.1-1.1-1.1H7.9z"/>
</svg>
